<svg width="136" height="41" viewBox="0 0 136 41" fill="none" xmlns="http://www.w3.org/2000/svg">
<g clip-path="url(#clip0_5768_6346)">
<path d="M124.965 0.433724H11.4724C11.0588 0.433724 10.65 0.433724 10.2374 0.435724C9.89203 0.437724 9.5494 0.443534 9.2007 0.448424C8.44315 0.456326 7.68739 0.5154 6.93998 0.625134C6.19362 0.737256 5.47064 0.94864 4.79549 1.25213C4.12117 1.5582 3.50502 1.95589 2.9694 2.43079C2.43096 2.90436 1.98214 3.45174 1.64018 4.05188C1.29727 4.65083 1.0595 5.29266 0.935078 5.9552C0.80947 6.61691 0.741879 7.28624 0.732912 7.9572C0.722443 8.2638 0.721337 8.57142 0.71582 8.87806V31.9923C0.721337 32.3028 0.722443 32.6036 0.732912 32.9142C0.741882 33.5851 0.809473 34.2545 0.935078 34.9161C1.05916 35.5791 1.29694 36.2212 1.64018 36.8204C1.98198 37.4186 2.43087 37.9638 2.9694 38.4347C3.50299 38.9117 4.11953 39.3097 4.79549 39.6134C5.47063 39.9177 6.19354 40.1304 6.93998 40.2442C7.68752 40.3531 8.4432 40.4122 9.2007 40.421C9.5494 40.4278 9.89203 40.4317 10.2374 40.4317C10.65 40.4337 11.0588 40.4337 11.4724 40.4337H124.965C125.371 40.4337 125.783 40.4337 126.188 40.4317C126.532 40.4317 126.884 40.4278 127.228 40.421C127.984 40.4126 128.739 40.3535 129.485 40.2442C130.233 40.1296 130.959 39.917 131.637 39.6134C132.313 39.3095 132.929 38.9116 133.462 38.4347C133.999 37.9619 134.449 37.4172 134.795 36.8204C135.135 36.2208 135.371 35.5787 135.493 34.9161C135.619 34.2544 135.689 33.5852 135.703 32.9142C135.707 32.6036 135.707 32.3028 135.707 31.9923C135.716 31.629 135.716 31.2677 135.716 30.8985V9.96985C135.716 9.60364 135.716 9.24036 135.707 8.87806C135.707 8.57142 135.707 8.2638 135.703 7.95716C135.689 7.28615 135.619 6.61696 135.493 5.95516C135.371 5.29301 135.135 4.65123 134.795 4.05184C134.098 2.84892 132.994 1.86975 131.637 1.25204C130.959 0.949291 130.233 0.737964 129.485 0.625044C128.739 0.514827 127.984 0.455732 127.228 0.448284C126.884 0.443404 126.532 0.437544 126.188 0.435594C125.783 0.433594 125.371 0.433594 124.965 0.433594V0.433724Z" fill="#A6A6A6"/>
<path d="M10.1458 39.5617C9.80151 39.5617 9.46551 39.5578 9.12389 39.551C8.41619 39.5428 7.71015 39.4883 7.01156 39.3879C6.36016 39.2886 5.72912 39.1039 5.13927 38.8399C4.55482 38.578 4.02176 38.2347 3.56051 37.823C3.09258 37.4162 2.703 36.9444 2.40722 36.4263C2.10818 35.9047 1.90123 35.3457 1.79357 34.7687C1.67731 34.1487 1.61441 33.5218 1.60541 32.8933C1.59825 32.6824 1.58887 31.98 1.58887 31.98V8.87463C1.58887 8.87463 1.59886 8.18308 1.60547 7.97991C1.61409 7.35246 1.67662 6.7265 1.79254 6.10745C1.90039 5.52884 2.1075 4.96823 2.4067 4.445C2.70139 3.9272 3.08881 3.45502 3.55392 3.04676C4.01851 2.63461 4.55327 2.28952 5.13871 2.02407C5.72721 1.7609 6.35705 1.5775 7.00714 1.48002C7.70803 1.37856 8.41652 1.32371 9.12667 1.31592L10.1464 1.30371H126.286L127.318 1.31641C128.021 1.32381 128.723 1.37818 129.418 1.47904C130.075 1.57774 130.711 1.76242 131.306 2.027C132.479 2.56196 133.433 3.40831 134.035 4.44744C134.33 4.96705 134.534 5.5231 134.64 6.0967C134.758 6.72084 134.823 7.35171 134.837 7.98431C134.84 8.26757 134.84 8.57183 134.84 8.87463C134.849 9.24971 134.849 9.60672 134.849 9.96665V30.8997C134.849 31.2631 134.849 31.6177 134.84 31.9751C134.84 32.3004 134.84 32.5984 134.836 32.905C134.822 33.5263 134.758 34.1459 134.642 34.7589C134.537 35.3401 134.331 35.9035 134.032 36.4293C133.734 36.9418 133.347 37.4095 132.884 37.8152C132.423 38.2291 131.889 38.5744 131.303 38.838C130.709 39.104 130.074 39.2894 129.418 39.3879C128.719 39.4889 128.013 39.5434 127.306 39.551C126.975 39.5578 126.628 39.5617 126.291 39.5617L125.066 39.5637L10.1458 39.5617Z" fill="black"/>
<path d="M33.5131 20.7344C33.5239 19.8998 33.7456 19.0814 34.1576 18.3554C34.5696 17.6295 35.1586 17.0195 35.8697 16.5824C35.418 15.9372 34.822 15.4062 34.1292 15.0317C33.4364 14.6571 32.6657 14.4493 31.8785 14.4247C30.1993 14.2484 28.5713 15.4295 27.7156 15.4295C26.8434 15.4295 25.5259 14.4422 24.1071 14.4714C23.1895 14.501 22.2951 14.7679 21.5112 15.2459C20.7274 15.724 20.0807 16.3969 19.6342 17.1992C17.7002 20.5477 19.1428 25.4687 20.9954 28.1753C21.9223 29.5007 23.0056 30.9811 24.423 30.9286C25.8101 30.8711 26.3281 30.0441 28.0024 30.0441C29.6612 30.0441 30.1472 30.9286 31.5934 30.8952C33.0818 30.8711 34.0196 29.564 34.914 28.2261C35.5799 27.2817 36.0924 26.238 36.4324 25.1336C35.5677 24.7679 34.8297 24.1557 34.3106 23.3734C33.7915 22.5911 33.5141 21.6733 33.5131 20.7344Z" fill="white"/>
<path d="M30.7817 12.6444C31.5932 11.6702 31.993 10.418 31.8962 9.15381C30.6564 9.28403 29.5111 9.87659 28.6887 10.8134C28.2865 11.2711 27.9785 11.8035 27.7823 12.3803C27.586 12.9571 27.5054 13.5669 27.5449 14.1748C28.1651 14.1812 28.7786 14.0468 29.3392 13.7817C29.8999 13.5166 30.3931 13.1278 30.7817 12.6444Z" fill="white"/>
<path d="M51.0464 27.5733H46.313L45.1763 30.9297H43.1714L47.6548 18.5117H49.7378L54.2212 30.9297H52.1821L51.0464 27.5733ZM46.8032 26.0244H50.5552L48.7056 20.5772H48.6538L46.8032 26.0244Z" fill="white"/>
<path d="M63.9038 26.4035C63.9038 29.217 62.398 31.0246 60.1255 31.0246C59.5499 31.0547 58.9774 30.9221 58.4736 30.642C57.9698 30.3619 57.5551 29.9455 57.2769 29.4406H57.2339V33.925H55.3755V21.8762H57.1743V23.382H57.2085C57.4995 22.8796 57.9212 22.4654 58.4288 22.1835C58.9365 21.9017 59.511 21.7627 60.0913 21.7815C62.3891 21.7815 63.9038 23.5979 63.9038 26.4035ZM61.9937 26.4035C61.9937 24.5705 61.0464 23.3654 59.6011 23.3654C58.1812 23.3654 57.2261 24.5959 57.2261 26.4035C57.2261 28.2278 58.1812 29.4494 59.6011 29.4494C61.0464 29.4494 61.9937 28.2531 61.9937 26.4035Z" fill="white"/>
<path d="M73.8687 26.4035C73.8687 29.217 72.3628 31.0246 70.0904 31.0246C69.5147 31.0547 68.9422 30.9221 68.4384 30.642C67.9346 30.3618 67.5199 29.9455 67.2417 29.4406H67.1987V33.925H65.3403V21.8762H67.1392V23.382H67.1733C67.4643 22.8796 67.886 22.4654 68.3937 22.1835C68.9013 21.9017 69.4758 21.7627 70.0562 21.7815C72.354 21.7815 73.8687 23.5979 73.8687 26.4035ZM71.9585 26.4035C71.9585 24.5705 71.0113 23.3654 69.5659 23.3654C68.146 23.3654 67.1909 24.5959 67.1909 26.4035C67.1909 28.2277 68.146 29.4494 69.5659 29.4494C71.0113 29.4494 71.9585 28.2531 71.9585 26.4035H71.9585Z" fill="white"/>
<path d="M80.4546 27.4698C80.5923 28.7012 81.7886 29.5098 83.4234 29.5098C84.9898 29.5098 86.1167 28.7012 86.1167 27.5908C86.1167 26.627 85.437 26.0498 83.8277 25.6543L82.2183 25.2666C79.938 24.7158 78.8794 23.6494 78.8794 21.9189C78.8794 19.7764 80.7466 18.3047 83.398 18.3047C86.022 18.3047 87.8208 19.7764 87.8814 21.9189H86.0054C85.8931 20.6797 84.8687 19.9316 83.3716 19.9316C81.8745 19.9316 80.8501 20.6885 80.8501 21.79C80.8501 22.668 81.5044 23.1846 83.105 23.58L84.4731 23.916C87.021 24.5185 88.0796 25.542 88.0796 27.3584C88.0796 29.6816 86.229 31.1367 83.2856 31.1367C80.5317 31.1367 78.6724 29.7158 78.5522 27.4697L80.4546 27.4698Z" fill="white"/>
<path d="M92.0903 19.7334V21.876H93.812V23.3477H92.0903V28.3389C92.0903 29.1143 92.4351 29.4756 93.1919 29.4756C93.3963 29.472 93.6003 29.4577 93.8032 29.4326V30.8955C93.4629 30.9591 93.1171 30.9879 92.771 30.9814C90.938 30.9814 90.2231 30.2929 90.2231 28.5371V23.3477H88.9067V21.876H90.2231V19.7334H92.0903Z" fill="white"/>
<path d="M94.8091 26.4033C94.8091 23.5547 96.4868 21.7646 99.103 21.7646C101.728 21.7646 103.398 23.5546 103.398 26.4033C103.398 29.2598 101.737 31.042 99.103 31.042C96.4702 31.042 94.8091 29.2598 94.8091 26.4033ZM101.504 26.4033C101.504 24.4492 100.609 23.2959 99.103 23.2959C97.5972 23.2959 96.7026 24.458 96.7026 26.4033C96.7026 28.3652 97.5972 29.5098 99.103 29.5098C100.609 29.5098 101.504 28.3652 101.504 26.4033H101.504Z" fill="white"/>
<path d="M104.93 21.8761H106.703V23.4171H106.746C106.866 22.9358 107.148 22.5105 107.544 22.2126C107.941 21.9147 108.428 21.7624 108.923 21.7814C109.138 21.7806 109.351 21.8039 109.56 21.8507V23.589C109.29 23.5064 109.008 23.4684 108.725 23.4767C108.455 23.4657 108.186 23.5133 107.936 23.6162C107.686 23.7191 107.462 23.8748 107.278 24.0727C107.094 24.2706 106.955 24.506 106.87 24.7626C106.786 25.0193 106.758 25.2912 106.789 25.5597V30.9298H104.93L104.93 21.8761Z" fill="white"/>
<path d="M118.128 28.2705C117.878 29.9141 116.278 31.042 114.23 31.042C111.596 31.042 109.961 29.2773 109.961 26.4463C109.961 23.6064 111.605 21.7646 114.152 21.7646C116.657 21.7646 118.232 23.4853 118.232 26.2305V26.8672H111.837V26.9795C111.808 27.3127 111.85 27.6484 111.96 27.9642C112.07 28.28 112.246 28.5688 112.476 28.8114C112.707 29.0539 112.986 29.2447 113.296 29.371C113.606 29.4973 113.939 29.5562 114.273 29.5439C114.712 29.5851 115.153 29.4834 115.53 29.2539C115.906 29.0245 116.199 28.6796 116.364 28.2705L118.128 28.2705ZM111.846 25.5684H116.373C116.389 25.2688 116.344 24.969 116.239 24.6877C116.134 24.4065 115.973 24.15 115.764 23.9342C115.556 23.7185 115.305 23.5481 115.027 23.4339C114.75 23.3197 114.452 23.2641 114.152 23.2705C113.849 23.2687 113.549 23.3268 113.269 23.4416C112.989 23.5563 112.735 23.7254 112.52 23.939C112.306 24.1527 112.136 24.4066 112.02 24.6863C111.905 24.9659 111.845 25.2657 111.846 25.5684V25.5684Z" fill="white"/>
<path d="M46.5703 9.16449C46.9599 9.13653 47.3509 9.19539 47.715 9.33682C48.0791 9.47825 48.4073 9.69873 48.6759 9.98236C48.9445 10.266 49.1468 10.6057 49.2682 10.977C49.3896 11.3482 49.4271 11.7418 49.3779 12.1293C49.3779 14.0356 48.3477 15.1313 46.5703 15.1313H44.415V9.16449H46.5703ZM45.3418 14.2875H46.4668C46.7452 14.3041 47.0238 14.2585 47.2823 14.1539C47.5409 14.0493 47.7728 13.8883 47.9613 13.6827C48.1498 13.4772 48.2901 13.2322 48.372 12.9655C48.4538 12.6989 48.4752 12.4174 48.4346 12.1415C48.4723 11.8667 48.4487 11.5869 48.3656 11.3222C48.2825 11.0576 48.1419 10.8145 47.9538 10.6106C47.7657 10.4067 47.5349 10.2469 47.2778 10.1426C47.0207 10.0384 46.7438 9.99232 46.4668 10.0077H45.3418V14.2875Z" fill="white"/>
<path d="M50.4246 12.8779C50.3963 12.582 50.4301 12.2834 50.524 12.0013C50.6178 11.7193 50.7696 11.4599 50.9695 11.2399C51.1695 11.02 51.4132 10.8442 51.685 10.7239C51.9569 10.6036 52.2509 10.5415 52.5481 10.5415C52.8454 10.5415 53.1394 10.6036 53.4112 10.7239C53.6831 10.8442 53.9268 11.02 54.1267 11.2399C54.3267 11.4599 54.4784 11.7193 54.5723 12.0013C54.6661 12.2834 54.7 12.582 54.6717 12.8779C54.7005 13.1741 54.6671 13.4731 54.5735 13.7556C54.4799 14.0381 54.3282 14.298 54.1282 14.5184C53.9282 14.7388 53.6843 14.9149 53.4122 15.0355C53.1401 15.156 52.8458 15.2183 52.5481 15.2183C52.2505 15.2183 51.9562 15.156 51.6841 15.0355C51.4119 14.9149 51.168 14.7388 50.968 14.5184C50.768 14.298 50.6164 14.0381 50.5228 13.7556C50.4292 13.4731 50.3957 13.1741 50.4246 12.8779ZM53.7576 12.8779C53.7576 11.9018 53.3191 11.331 52.5496 11.331C51.7771 11.331 51.3426 11.9018 51.3426 12.8779C51.3426 13.8618 51.7772 14.4282 52.5496 14.4282C53.3191 14.4282 53.7576 13.8579 53.7576 12.8779H53.7576Z" fill="white"/>
<path d="M60.3174 15.1313H59.3955L58.4648 11.8149H58.3945L57.4678 15.1313H56.5547L55.3135 10.6284H56.2148L57.0215 14.0644H57.0879L58.0137 10.6284H58.8662L59.792 14.0644H59.8623L60.665 10.6284H61.5537L60.3174 15.1313Z" fill="white"/>
<path d="M62.5977 10.6285H63.4531V11.3438H63.5195C63.6322 11.0869 63.8222 10.8715 64.0631 10.7277C64.3039 10.5839 64.5837 10.5188 64.8633 10.5415C65.0824 10.5251 65.3024 10.5581 65.507 10.6382C65.7116 10.7183 65.8955 10.8434 66.0452 11.0042C66.1949 11.1651 66.3065 11.3575 66.3717 11.5674C66.4369 11.7772 66.454 11.999 66.4219 12.2163V15.1313H65.5332V12.4395C65.5332 11.7159 65.2188 11.356 64.5615 11.356C64.4128 11.3491 64.2643 11.3744 64.1262 11.4302C63.9882 11.4861 63.8638 11.5711 63.7617 11.6795C63.6596 11.7878 63.5821 11.917 63.5345 12.0582C63.487 12.1993 63.4706 12.349 63.4863 12.4971V15.1314H62.5977L62.5977 10.6285Z" fill="white"/>
<path d="M67.8379 8.87061H68.7266V15.1313H67.8379V8.87061Z" fill="white"/>
<path d="M69.9617 12.878C69.9334 12.582 69.9673 12.2834 70.0611 12.0014C70.155 11.7193 70.3068 11.4599 70.5067 11.2399C70.7067 11.02 70.9504 10.8442 71.2223 10.7239C71.4942 10.6036 71.7882 10.5415 72.0855 10.5415C72.3828 10.5415 72.6768 10.6036 72.9486 10.7239C73.2205 10.8442 73.4642 11.02 73.6642 11.2399C73.8642 11.4599 74.0159 11.7193 74.1098 12.0014C74.2037 12.2834 74.2375 12.582 74.2092 12.878C74.238 13.1742 74.2046 13.4732 74.1109 13.7557C74.0173 14.0382 73.8656 14.298 73.6656 14.5185C73.4656 14.7389 73.2217 14.915 72.9496 15.0355C72.6774 15.156 72.3831 15.2183 72.0855 15.2183C71.7878 15.2183 71.4935 15.156 71.2214 15.0355C70.9492 14.915 70.7053 14.7389 70.5053 14.5185C70.3053 14.298 70.1536 14.0382 70.06 13.7557C69.9664 13.4732 69.9329 13.1742 69.9617 12.878ZM73.2947 12.878C73.2947 11.9019 72.8562 11.3311 72.0867 11.3311C71.3142 11.3311 70.8797 11.9019 70.8797 12.878C70.8797 13.8619 71.3143 14.4283 72.0867 14.4283C72.8562 14.4283 73.2947 13.8579 73.2947 12.878H73.2947Z" fill="white"/>
<path d="M75.145 13.8579C75.145 13.0474 75.7485 12.5801 76.8198 12.5137L78.0396 12.4434V12.0547C78.0396 11.5791 77.7251 11.3105 77.1177 11.3105C76.6216 11.3105 76.2778 11.4927 76.1792 11.811H75.3188C75.4097 11.0376 76.1372 10.5415 77.1587 10.5415C78.2876 10.5415 78.9243 11.1035 78.9243 12.0547V15.1313H78.0688V14.4985H77.9985C77.8558 14.7255 77.6554 14.9106 77.4178 15.0348C77.1802 15.159 76.9138 15.2179 76.646 15.2055C76.457 15.2252 76.2659 15.205 76.0851 15.1463C75.9044 15.0876 75.7379 14.9917 75.5965 14.8647C75.4551 14.7378 75.3419 14.5826 75.2641 14.4092C75.1863 14.2357 75.1458 14.048 75.145 13.8579ZM78.0396 13.4731V13.0967L76.9399 13.167C76.3198 13.2085 76.0386 13.4194 76.0386 13.8164C76.0386 14.2217 76.3901 14.4575 76.8736 14.4575C77.0152 14.4718 77.1583 14.4575 77.2943 14.4155C77.4303 14.3734 77.5565 14.3043 77.6652 14.2125C77.774 14.1207 77.8632 14.0079 77.9275 13.8809C77.9918 13.7538 78.0299 13.6152 78.0396 13.4731Z" fill="white"/>
<path d="M80.0923 12.8779C80.0923 11.4551 80.8237 10.5537 81.9614 10.5537C82.2428 10.5408 82.5221 10.6082 82.7667 10.7481C83.0112 10.888 83.2108 11.0946 83.3423 11.3437H83.4087V8.87061H84.2974V15.1313H83.4458V14.4199H83.3755C83.2339 14.6674 83.0273 14.8714 82.778 15.0099C82.5288 15.1484 82.2464 15.2161 81.9614 15.2056C80.8159 15.2056 80.0923 14.3042 80.0923 12.8779ZM81.0103 12.8779C81.0103 13.833 81.4605 14.4077 82.2134 14.4077C82.9624 14.4077 83.4253 13.8247 83.4253 12.8819C83.4253 11.9434 82.9576 11.3521 82.2134 11.3521C81.4653 11.3521 81.0103 11.9307 81.0103 12.8779H81.0103Z" fill="white"/>
<path d="M87.9739 12.8779C87.9456 12.582 87.9795 12.2834 88.0733 12.0013C88.1671 11.7193 88.3189 11.4599 88.5188 11.2399C88.7188 11.02 88.9625 10.8442 89.2343 10.7239C89.5062 10.6036 89.8002 10.5415 90.0974 10.5415C90.3947 10.5415 90.6887 10.6036 90.9606 10.7239C91.2324 10.8442 91.4761 11.02 91.6761 11.2399C91.876 11.4599 92.0278 11.7193 92.1216 12.0013C92.2154 12.2834 92.2493 12.582 92.221 12.8779C92.2498 13.1741 92.2164 13.4731 92.1228 13.7556C92.0292 14.0381 91.8775 14.298 91.6775 14.5184C91.4775 14.7388 91.2336 14.9149 90.9615 15.0355C90.6894 15.156 90.3951 15.2183 90.0974 15.2183C89.7998 15.2183 89.5055 15.156 89.2334 15.0355C88.9612 14.9149 88.7173 14.7388 88.5174 14.5184C88.3174 14.298 88.1657 14.0381 88.0721 13.7556C87.9785 13.4731 87.9451 13.1741 87.9739 12.8779ZM91.3069 12.8779C91.3069 11.9018 90.8684 11.331 90.0989 11.331C89.3265 11.331 88.8919 11.9018 88.8919 12.8779C88.8919 13.8618 89.3265 14.4282 90.0989 14.4282C90.8684 14.4282 91.3069 13.8579 91.3069 12.8779Z" fill="white"/>
<path d="M93.4136 10.6285H94.269V11.3438H94.3355C94.4481 11.0869 94.6381 10.8715 94.879 10.7277C95.1199 10.5839 95.3996 10.5188 95.6792 10.5415C95.8983 10.5251 96.1183 10.5581 96.3229 10.6382C96.5275 10.7183 96.7115 10.8434 96.8611 11.0042C97.0108 11.1651 97.1224 11.3575 97.1876 11.5674C97.2528 11.7772 97.27 11.999 97.2378 12.2163V15.1313H96.3491V12.4395C96.3491 11.7159 96.0347 11.356 95.3774 11.356C95.2287 11.3491 95.0802 11.3744 94.9421 11.4302C94.8041 11.4861 94.6797 11.5711 94.5776 11.6795C94.4755 11.7878 94.398 11.917 94.3505 12.0582C94.3029 12.1993 94.2865 12.349 94.3022 12.4971V15.1314H93.4136V10.6285Z" fill="white"/>
<path d="M102.259 9.50732V10.6489H103.235V11.3975H102.259V13.7129C102.259 14.1846 102.454 14.3911 102.896 14.3911C103.009 14.3908 103.122 14.3839 103.235 14.3706V15.1108C103.075 15.1394 102.914 15.1546 102.751 15.1562C101.763 15.1562 101.37 14.8086 101.37 13.9404V11.3974H100.655V10.6489H101.37V9.50732H102.259Z" fill="white"/>
<path d="M104.449 8.87061H105.33V11.3521H105.4C105.518 11.0927 105.713 10.8761 105.959 10.7318C106.205 10.5874 106.489 10.5224 106.773 10.5454C106.991 10.5336 107.209 10.5699 107.411 10.652C107.613 10.734 107.795 10.8597 107.943 11.02C108.091 11.1804 108.202 11.3714 108.268 11.5796C108.334 11.7877 108.353 12.0078 108.324 12.2241V15.1314H107.434V12.4434C107.434 11.7241 107.099 11.3599 106.471 11.3599C106.318 11.3473 106.165 11.3683 106.021 11.4214C105.877 11.4744 105.747 11.5583 105.639 11.667C105.531 11.7757 105.448 11.9068 105.396 12.0509C105.344 12.195 105.324 12.3488 105.337 12.5015V15.1313H104.449L104.449 8.87061Z" fill="white"/>
<path d="M113.506 13.9156C113.385 14.3271 113.123 14.6831 112.767 14.9213C112.41 15.1594 111.981 15.2646 111.554 15.2183C111.258 15.2262 110.963 15.1693 110.69 15.0518C110.418 14.9343 110.174 14.7589 109.976 14.5377C109.778 14.3166 109.631 14.055 109.544 13.7712C109.458 13.4874 109.434 13.1881 109.474 12.8941C109.435 12.5992 109.459 12.2993 109.546 12.0146C109.632 11.73 109.779 11.4672 109.976 11.2441C110.172 11.021 110.415 10.8429 110.687 10.7217C110.958 10.6005 111.253 10.539 111.55 10.5416C112.803 10.5416 113.559 11.3976 113.559 12.8116V13.1217H110.38V13.1715C110.366 13.3367 110.386 13.503 110.441 13.6598C110.495 13.8165 110.581 13.9603 110.694 14.0817C110.807 14.2032 110.944 14.2997 111.096 14.3651C111.249 14.4305 111.413 14.4633 111.579 14.4615C111.791 14.487 112.007 14.4487 112.197 14.3515C112.388 14.2543 112.546 14.1026 112.65 13.9156L113.506 13.9156ZM110.38 12.4644H112.654C112.665 12.3133 112.645 12.1615 112.594 12.0188C112.543 11.8761 112.462 11.7456 112.358 11.6357C112.254 11.5259 112.127 11.4391 111.988 11.3809C111.848 11.3227 111.697 11.2945 111.546 11.2979C111.392 11.296 111.239 11.3249 111.097 11.3828C110.955 11.4407 110.825 11.5266 110.717 11.6353C110.608 11.744 110.522 11.8734 110.464 12.0158C110.406 12.1582 110.378 12.3107 110.38 12.4644H110.38Z" fill="white"/>
</g>
<defs>
<clipPath id="clip0_5768_6346">
<rect width="135" height="40" fill="white" transform="translate(0.71582 0.433594)"/>
</clipPath>
</defs>
</svg>
