<svg width="50" height="50" viewBox="0 0 50 50" fill="none" xmlns="http://www.w3.org/2000/svg">
<path d="M20.1422 1.27732L1.34706 20.6458C-0.838907 23.4146 0.118757 27.3115 0.870835 28.9139L14.9536 43.4161C16.5052 45.2256 20.208 49.0348 22.6064 49.7956C28.208 50.7861 29.6281 47.854 29.5887 47.8936C29.5492 47.9332 18.9773 38.8198 17.3994 37.3933C17.2416 36.5375 17.9911 36.482 18.3856 36.5612C22.0147 39.6915 29.6123 46.2136 30.9693 47.2596C33.2415 45.8015 34.7563 43.6671 35.2297 42.7822C31.1587 39.3035 22.9393 32.263 22.6294 31.9301C22.0843 31.2216 22.7916 30.9734 23.2134 30.9379C26.5227 33.7633 33.8077 39.9127 36.474 41.9071C39.1403 39.8557 40.4214 37.9658 40.7287 37.2772C37.1358 33.9057 29.6948 26.9491 28.6737 26.0943C27.766 25.0117 28.7209 24.8834 29.3119 24.9547L41.9342 36.4937C43.3052 35.3541 46.0471 32.8326 46.0471 31.8639C43.707 28.0175 34.843 19.8262 33.1411 18.6153C31.4392 17.4044 28.8864 17.6181 28.1064 17.6181C27.4823 17.6181 26.4281 18.6153 25.979 19.1139C24.9626 20.2773 22.3723 22.6184 20.1422 22.6754C17.3547 22.7466 14.7749 20.6458 15.1295 19.1139C17.4696 18.188 19.526 14.5553 20.1422 13.5581C20.7585 12.5609 21.5115 11.1363 23.4262 8.85701C24.9579 7.03356 32.0538 6.81512 35.4103 6.93384C34.9479 6.34051 33.2514 4.45357 30.1639 1.65244C27.0764 -1.14868 22.1964 0.235227 20.1422 1.27732Z" fill="#17395C"/>
<path d="M21.9256 12.9489C21.1979 15.2329 17.9636 18.4561 16.4375 19.7822C17.4426 21.9691 21.0919 21.2674 21.7246 21.1262C22.3574 20.9849 24.2556 19.3607 26.3295 17.1362C29.212 15.7945 31.3563 16.536 33.2019 17.3161C38.3701 19.6585 44.4221 27.3427 46.8021 30.8919C46.8021 30.8919 47.0433 31.0548 47.4936 30.8919C52.0329 25.7931 49.385 20.7596 47.4936 18.8802L37.2361 8.57128C36.9203 8.41903 35.1897 8.1069 30.7936 8.07645C25.2986 8.03838 22.8353 10.094 21.9256 12.9489Z" fill="#F7AD2A"/>
</svg>
