<svg width="48" height="48" viewBox="0 0 48 48" fill="none" xmlns="http://www.w3.org/2000/svg">
<path d="M33.0001 10.05V7.5C33.0001 6.30653 32.526 5.16193 31.6821 4.31802C30.8382 3.47411 29.6936 3 28.5001 3H25.5001C24.3066 3 23.1621 3.47411 22.3181 4.31802C21.4742 5.16193 21.0001 6.30653 21.0001 7.5V10.05C17.2697 11.362 14.0752 13.866 11.9101 17.175C11.8018 17.3405 11.7271 17.5256 11.6903 17.72C11.6536 17.9143 11.6554 18.114 11.6958 18.3076C11.7774 18.6986 12.011 19.0412 12.3451 19.26C12.6793 19.4788 13.0867 19.5559 13.4777 19.4743C13.8687 19.3927 14.2113 19.1592 14.4301 18.825C15.9968 16.4163 18.2223 14.5082 20.842 13.3277C23.4617 12.1472 26.3654 11.744 29.2076 12.1661C32.0498 12.5881 34.7111 13.8176 36.8747 15.7084C39.0384 17.5991 40.6135 20.0715 41.4126 22.8316C42.2118 25.5916 42.2014 28.5231 41.3827 31.2774C40.5639 34.0317 38.9714 36.4928 36.7943 38.3682C34.6173 40.2435 31.9474 41.4541 29.1023 41.856C26.2571 42.2578 23.3564 41.834 20.7451 40.635C20.3831 40.4699 19.9703 40.4554 19.5976 40.5946C19.2249 40.7339 18.9227 41.0155 18.7576 41.3775C18.5925 41.7395 18.578 42.1523 18.7172 42.525C18.8565 42.8978 19.1381 43.1999 19.5001 43.365C21.714 44.4062 24.117 44.9852 26.5621 45.0665C29.0073 45.1479 31.4434 44.7299 33.7216 43.8381C35.9998 42.9464 38.0723 41.5996 39.8126 39.8799C41.5528 38.1603 42.9242 36.104 43.843 33.8365C44.7618 31.5691 45.2088 29.1382 45.1565 26.6922C45.1043 24.2462 44.554 21.8366 43.5392 19.6104C42.5245 17.3843 41.0665 15.3884 39.2545 13.7446C37.4424 12.1008 35.3143 10.8437 33.0001 10.05Z" fill="#0096E0"/>
<path d="M35.67 20.07C35.4225 19.7609 35.0628 19.5622 34.6694 19.5173C34.276 19.4723 33.8808 19.5847 33.57 19.83L29.355 23.19C28.6528 22.738 27.8351 22.4984 27 22.5C26.11 22.5 25.24 22.7639 24.4999 23.2584C23.7599 23.7528 23.1831 24.4556 22.8425 25.2779C22.5019 26.1002 22.4128 27.005 22.5865 27.8779C22.7601 28.7508 23.1887 29.5526 23.818 30.182C24.4474 30.8113 25.2492 31.2399 26.1221 31.4135C26.995 31.5872 27.8998 31.498 28.7221 31.1574C29.5443 30.8169 30.2471 30.2401 30.7416 29.5001C31.2361 28.76 31.5 27.89 31.5 27C31.498 26.4881 31.4067 25.9804 31.23 25.5L35.43 22.14C35.7304 21.8933 35.9234 21.5396 35.9681 21.1535C36.0129 20.7673 35.906 20.3789 35.67 20.07Z" fill="#AADDFF"/>
<path d="M16.5 25.5H7.5C7.10218 25.5 6.72064 25.342 6.43934 25.0607C6.15804 24.7794 6 24.3978 6 24C6 23.6022 6.15804 23.2206 6.43934 22.9393C6.72064 22.658 7.10218 22.5 7.5 22.5H16.5C16.8978 22.5 17.2794 22.658 17.5607 22.9393C17.842 23.2206 18 23.6022 18 24C18 24.3978 17.842 24.7794 17.5607 25.0607C17.2794 25.342 16.8978 25.5 16.5 25.5Z" fill="#AADDFF"/>
<path d="M16.5 31.5H4.5C4.10218 31.5 3.72064 31.342 3.43934 31.0607C3.15804 30.7794 3 30.3978 3 30C3 29.6022 3.15804 29.2206 3.43934 28.9393C3.72064 28.658 4.10218 28.5 4.5 28.5H16.5C16.8978 28.5 17.2794 28.658 17.5607 28.9393C17.842 29.2206 18 29.6022 18 30C18 30.3978 17.842 30.7794 17.5607 31.0607C17.2794 31.342 16.8978 31.5 16.5 31.5Z" fill="#AADDFF"/>
<path d="M16.5 37.5H7.5C7.10218 37.5 6.72064 37.342 6.43934 37.0607C6.15804 36.7794 6 36.3978 6 36C6 35.6022 6.15804 35.2206 6.43934 34.9393C6.72064 34.658 7.10218 34.5 7.5 34.5H16.5C16.8978 34.5 17.2794 34.658 17.5607 34.9393C17.842 35.2206 18 35.6022 18 36C18 36.3978 17.842 36.7794 17.5607 37.0607C17.2794 37.342 16.8978 37.5 16.5 37.5Z" fill="#AADDFF"/>
</svg>
