<svg width="40" height="40" viewBox="0 0 40 40" fill="none" xmlns="http://www.w3.org/2000/svg">
<path d="M18.8302 2.74646C14.3129 3.00576 10.0766 4.76115 6.69531 7.77467L11.9247 13.004C13.8927 11.3657 16.2822 10.3756 18.8302 10.1428V2.74646Z" fill="#0096E0"/>
<path d="M10.2639 14.6607L5.03461 9.4314C2.01852 12.8118 0.260937 17.0483 0 21.5668H7.39664C7.63101 19.0183 8.6232 16.6285 10.2639 14.6607Z" fill="#0096E0"/>
<path d="M32.6016 21.5668H39.9983C39.7373 17.0483 37.9798 12.8118 34.9637 9.4314L29.7344 14.6607C31.3751 16.6284 32.3673 19.0183 32.6016 21.5668Z" fill="#0096E0"/>
<path d="M32.6002 23.9106C32.4359 25.7156 31.9209 27.221 31.3116 28.4286C31.9059 29.3451 32.4014 30.1196 32.7287 30.634C33.6202 32.0349 33.4228 33.8332 32.2487 35.0074C31.9637 35.2924 31.638 35.5221 31.2852 35.6919L32.503 36.9099C32.7323 37.1391 33.0327 37.2537 33.3331 37.2537C33.6336 37.2537 33.934 37.1391 34.1631 36.9099C37.6728 33.4006 39.7193 28.8213 39.9994 23.9106H32.6002Z" fill="#0096E0"/>
<path d="M7.39922 23.9106H0C0.280078 28.8213 2.32656 33.4006 5.83617 36.9099C6.06539 37.1392 6.36578 37.2538 6.66617 37.2538C6.96656 37.2538 7.26703 37.1391 7.49625 36.9099L11.0519 33.3541C11.5102 32.8956 11.5102 32.1524 11.0519 31.6939C10.124 30.766 7.78672 28.1682 7.39922 23.9106Z" fill="#0096E0"/>
<path d="M33.3068 7.77467C29.9255 4.76107 25.6892 3.00576 21.1719 2.74646V10.1428C23.7198 10.3756 26.1095 11.3657 28.0774 13.004L33.3068 7.77467Z" fill="#0096E0"/>
<path d="M22.6046 20.1545C21.1689 18.7188 18.8328 18.7188 17.3971 20.1545C15.9614 21.5902 15.9614 23.9263 17.3971 25.362C19.2108 27.1758 28.1245 32.8672 29.135 33.5101C29.5983 33.8051 30.2044 33.7385 30.5928 33.3501C30.9812 32.9618 31.0477 32.3558 30.7528 31.8923C30.1097 30.8819 24.4183 21.9682 22.6046 20.1545Z" fill="#AADDFF"/>
</svg>
