<svg width="48" height="48" viewBox="0 0 48 48" fill="none" xmlns="http://www.w3.org/2000/svg">
<g clip-path="url(#clip0_4740_20260)">
<path d="M10.3013 13.9191C10.5681 13.3235 10.7177 12.6646 10.7177 11.971C10.7177 11.6301 10.6813 11.2977 10.6131 10.9768C10.1541 8.8152 8.23131 7.18835 5.93509 7.18835C3.29781 7.18835 1.15234 9.33382 1.15234 11.971C1.15234 14.6082 3.29781 16.7538 5.93509 16.7538C6.85693 16.7538 7.71831 16.4909 8.44937 16.0372L10.3519 17.7003C10.8857 16.9241 11.5079 16.2131 12.2043 15.5827L10.3013 13.9191Z" fill="#AADDFF"/>
<path d="M34.9485 0C31.748 0 29.1442 2.60381 29.1442 5.80444C29.1442 6.21816 29.1885 6.62166 29.2711 7.01109C29.4561 7.88213 29.8373 8.68087 30.3657 9.36028L26.5312 14.2408C27.3352 14.734 28.077 15.3189 28.7419 15.981L32.5767 11.1001C33.3014 11.426 34.1038 11.6089 34.9485 11.6089C38.149 11.6089 40.7529 9.00506 40.7529 5.80444C40.7529 2.60381 38.149 0 34.9485 0Z" fill="#0096E0"/>
<path d="M11.4632 38.5426L14.2151 34.8822C13.4005 34.406 12.6464 33.8373 11.9679 33.1895L9.21643 36.8492C8.52156 36.5544 7.75787 36.3912 6.95678 36.3912C3.75625 36.3912 1.15234 38.995 1.15234 42.1956C1.15234 45.3963 3.75615 48.0001 6.95668 48.0001C10.1572 48.0001 12.7611 45.3963 12.7611 42.1956C12.7611 41.8153 12.7232 41.4438 12.6531 41.0835C12.468 40.1338 12.0511 39.2664 11.4632 38.5426Z" fill="#0096E0"/>
<path d="M20.2638 15.2869C15.186 15.2869 11.0547 19.4181 11.0547 24.4959C11.0547 29.5737 15.1859 33.705 20.2638 33.705C25.3417 33.705 29.4729 29.5738 29.4729 24.4959C29.4729 19.4181 25.3418 15.2869 20.2638 15.2869Z" fill="#0096E0"/>
<path d="M39.1545 28.2166C36.8738 28.2166 34.8227 29.2152 33.4126 30.797L31.2087 29.4655C30.8163 30.3264 30.3252 31.1329 29.75 31.8712L31.9545 33.203C31.6368 34.0455 31.4616 34.9572 31.4616 35.9094C31.4616 36.4136 31.5118 36.906 31.6048 37.3833C32.2945 40.9224 35.4166 43.6023 39.1544 43.6023C43.3963 43.6023 46.8474 40.1513 46.8474 35.9094C46.8475 31.6676 43.3964 28.2166 39.1545 28.2166Z" fill="#AADDFF"/>
</g>
<defs>
<clipPath id="clip0_4740_20260">
<rect width="48" height="48" fill="white"/>
</clipPath>
</defs>
</svg>
