<svg width="48" height="48" viewBox="0 0 48 48" fill="none" xmlns="http://www.w3.org/2000/svg">
<path d="M13.0755 35.8666C5.43169 33.5663 0 26.3731 0 18.375C0 8.295 8.295 0 18.375 0C26.3731 0 33.5663 5.43169 35.8666 13.0755C36.1926 14.1579 35.1664 15.1568 34.1047 14.8237C32.6696 14.3814 31.1618 14.1562 29.625 14.1562C21.0955 14.1562 14.1562 21.0955 14.1562 29.625C14.1562 31.1618 14.3814 32.6696 14.8237 34.1047C15.1554 35.1742 14.1562 36.1898 13.0755 35.8666Z" fill="#2682FF"/>
<path d="M29.6254 48C21.6273 48 14.434 42.5683 12.1338 34.9245C11.9841 34.4273 12.1214 33.8876 12.4909 33.5209C12.8561 33.1543 13.3973 33.021 13.8957 33.1762C15.3308 33.6185 16.8386 33.8437 18.3754 33.8437C26.9049 33.8437 33.8441 26.9044 33.8441 18.3749C33.8441 16.8382 33.619 15.3303 33.1767 13.8953C33.0229 13.3995 33.1561 12.8584 33.5215 12.4904C33.8881 12.1224 34.432 11.9878 34.925 12.1333C42.5687 14.4336 48.0004 21.6269 48.0004 29.625C48.0004 39.705 39.7054 48 29.6254 48Z" fill="#AADDFF"/>
<path d="M36.6562 18.375C36.6562 16.2989 36.3297 14.2954 35.6356 12.3644C33.7046 11.6703 31.7011 11.3438 29.625 11.3438C28.2751 11.3438 26.9531 11.4844 25.6874 11.7657L26.2283 13.9592L22.6782 12.7219C21.75 13.0875 20.8782 13.5656 20.0345 14.0718L21.2337 17.2209L17.7563 15.7594C17.0251 16.3501 16.3501 17.025 15.7876 17.7563L17.3073 21.3722L14.0718 20.0345C13.5655 20.85 13.1156 21.7501 12.7219 22.6501L14.0077 26.3279L11.7657 25.6874C11.4844 26.9531 11.3438 28.2751 11.3438 29.625C11.3438 31.7011 11.6703 33.7046 12.3644 35.6356C14.2954 36.3297 16.2989 36.6562 18.375 36.6562C19.7249 36.6562 21.0469 36.5156 22.3126 36.2343L21.4897 33.6786L25.35 35.2781C26.25 34.8844 27.15 34.4344 27.9656 33.9282L26.4735 30.4857L30.2437 32.2125C30.9749 31.65 31.6499 30.975 32.2406 30.2438L30.4593 26.3668L33.9282 27.9656C34.4345 27.1219 34.9125 26.25 35.2781 25.3219L33.6566 21.4004L36.2343 22.3126C36.5156 21.0469 36.6562 19.7249 36.6562 18.375Z" fill="#7ED8F6"/>
<path d="M18.3739 36.6562C19.7238 36.6562 21.0458 36.5156 22.3115 36.2343L21.4885 33.6785L25.3489 35.2781C26.2489 34.8843 27.1489 34.4343 27.9645 33.9282L26.4724 30.4857L30.2425 32.2125C30.9738 31.65 31.6488 30.975 32.2395 30.2437L30.4582 26.3668L33.9271 27.9656C34.4333 27.1218 34.9114 26.25 35.277 25.3218L33.6555 21.4004L36.2332 22.3126C36.5145 21.0469 36.6551 19.7249 36.6551 18.375C36.6551 16.2989 36.3286 14.2953 35.6345 12.3644L12.3633 35.6356C14.2942 36.3297 16.2978 36.6562 18.3739 36.6562Z" fill="#6AA9FF"/>
<path d="M25.3499 35.2781C24.3656 35.6719 23.3531 36.0094 22.3125 36.2343L11.7656 25.6874C11.9905 24.6468 12.328 23.6344 12.7218 22.65L25.3499 35.2781Z" fill="#2682FF"/>
<path d="M30.2422 32.2124C29.5391 32.8594 28.7798 33.4218 27.9641 33.9281L14.0703 20.0344C14.5767 19.2186 15.1391 18.4594 15.786 17.7562L30.2422 32.2124Z" fill="#2682FF"/>
<path d="M33.9297 27.9655C33.4233 28.7812 32.8609 29.5405 32.2421 30.2437L17.7578 15.7594C18.4609 15.1405 19.2202 14.5782 20.0359 14.0718L33.9297 27.9655Z" fill="#2682FF"/>
<path d="M36.2357 22.3126C36.0108 23.3532 35.6733 24.3656 35.2796 25.3218L22.6797 12.7219C23.6358 12.3282 24.6483 11.9907 25.6889 11.7657L36.2357 22.3126Z" fill="#2682FF"/>
<path d="M22.3125 36.2343C23.3531 36.0094 24.3655 35.6719 25.3499 35.2782L19.0358 28.9641L17.0391 30.9609L22.3125 36.2343Z" fill="#2682FF"/>
<path d="M27.9663 33.9282C28.782 33.4218 29.5413 32.8595 30.2444 32.2125L23.0165 24.9844L21.0195 26.9812L27.9663 33.9282Z" fill="#2682FF"/>
<path d="M32.2421 30.2436C32.8609 29.5405 33.4233 28.7812 33.9297 27.9655L26.9829 21.0186L25 23.0015L32.2421 30.2436Z" fill="#2682FF"/>
<path d="M28.9766 19.0218L35.2766 25.3218C35.6703 24.3657 36.0078 23.3532 36.2327 22.3126L30.9593 17.0392L28.9766 19.0218Z" fill="#2682FF"/>
</svg>
