<svg width="48" height="48" viewBox="0 0 48 48" fill="none" xmlns="http://www.w3.org/2000/svg">
<path d="M31.9329 23.3064V24.5197C31.9329 27.3878 29.5994 29.7217 26.7308 29.7217H21.2688C18.4006 29.7217 16.0668 27.3882 16.0668 24.5197V23.3064H0V39.0322C0 41.6704 2.14636 43.8168 4.78455 43.8168H43.2155C45.8536 43.8168 48 41.6704 48 39.0322V23.3064H31.9329Z" fill="#0096E0"/>
<path d="M18.918 24.5197C18.918 25.8168 19.973 26.8718 21.2701 26.8718H26.7322C28.0293 26.8718 29.0847 25.8168 29.0847 24.5197V23.3064H18.918V24.5197Z" fill="#0096E0"/>
<path d="M48 20.4569V16.2253C48 13.5872 45.8536 11.4408 43.2155 11.4408H32.7513V7.88708C32.7513 5.86414 31.106 4.21875 29.083 4.21875H18.917C16.894 4.21875 15.2487 5.86414 15.2487 7.88708V11.4408H4.78455C2.14636 11.4408 0 13.5872 0 16.2253V20.4565H48V20.4569ZM18.0981 7.88708C18.0981 7.43555 18.4655 7.06824 18.917 7.06824H29.083C29.5345 7.06824 29.9019 7.43555 29.9019 7.88708V11.4408H18.0981V7.88708Z" fill="#AADDFF"/>
</svg>
