<svg width="498" height="320" viewBox="0 0 498 320" fill="none" xmlns="http://www.w3.org/2000/svg">
<path d="M31.1468 236.691C24.9546 221.924 30.7274 204.857 44.6125 196.88L356.138 17.9176C372.699 8.40351 393.851 15.5581 401.237 33.172V33.172C407.429 47.9395 401.656 65.0069 387.771 72.9834L76.2463 251.946C59.6849 261.46 38.5325 254.305 31.1468 236.691V236.691Z" fill="#FFF8D6"/>
<path opacity="0.2" d="M96.513 286.828C90.3208 272.06 96.0937 254.993 109.979 247.016L421.504 68.0538C438.065 58.5397 459.218 65.6943 466.603 83.3082V83.3082C472.795 98.0757 467.023 115.143 453.138 123.12L141.613 302.082C125.051 311.596 103.899 304.442 96.513 286.828V286.828Z" fill="#D6D6FF"/>
</svg>
