<svg width="210" height="135" viewBox="0 0 210 135" fill="none" xmlns="http://www.w3.org/2000/svg">
<path d="M13.1038 99.5789C10.4987 93.366 12.9274 86.1856 18.769 82.8297L149.831 7.53832C156.799 3.53565 165.698 6.54565 168.805 13.956V13.956C171.41 20.1688 168.981 27.3493 163.14 30.7051L32.0776 105.997C25.1101 109.999 16.211 106.989 13.1038 99.5789V99.5789Z" fill="#FFF8D6"/>
<path opacity="0.2" d="M40.6038 120.672C37.9987 114.459 40.4274 107.278 46.269 103.923L177.331 28.6311C184.299 24.6284 193.198 27.6384 196.305 35.0488V35.0488C198.91 41.2616 196.481 48.4421 190.64 51.7979L59.5776 127.089C52.6101 131.092 43.711 128.082 40.6038 120.672V120.672Z" fill="#D6D6FF"/>
</svg>
