<svg width="31" height="31" viewBox="0 0 31 31" fill="none" xmlns="http://www.w3.org/2000/svg">
<path d="M15.7158 3.3335C12.5647 3.33355 9.53606 4.55409 7.26543 6.73899C4.99479 8.92389 3.65864 11.9033 3.53736 15.0521C3.41608 18.2009 4.51908 21.2743 6.61492 23.6274C8.71076 25.9805 11.6365 27.4303 14.7783 27.6728V18.3336H11.9658C11.7172 18.3336 11.4787 18.2348 11.3029 18.059C11.1271 17.8832 11.0283 17.6447 11.0283 17.3961C11.0283 17.1475 11.1271 16.909 11.3029 16.7332C11.4787 16.5574 11.7172 16.4586 11.9658 16.4586H14.7783V13.6461C14.7795 12.6519 15.1749 11.6987 15.8779 10.9957C16.5809 10.2927 17.5341 9.89724 18.5283 9.89611H20.4033C20.652 9.89611 20.8904 9.99488 21.0662 10.1707C21.242 10.3465 21.3408 10.585 21.3408 10.8336C21.3408 11.0822 21.242 11.3207 21.0662 11.4965C20.8904 11.6723 20.652 11.7711 20.4033 11.7711H18.5283C18.0312 11.7717 17.5546 11.9694 17.2031 12.3209C16.8516 12.6724 16.6539 13.149 16.6533 13.6461V16.4586H19.4658C19.7145 16.4586 19.9529 16.5574 20.1287 16.7332C20.3045 16.909 20.4033 17.1475 20.4033 17.3961C20.4033 17.6447 20.3045 17.8832 20.1287 18.059C19.9529 18.2348 19.7145 18.3336 19.4658 18.3336H16.6533V27.6728C19.7951 27.4303 22.7208 25.9804 24.8167 23.6274C26.9125 21.2743 28.0155 18.2009 27.8942 15.0521C27.7729 11.9033 26.4368 8.9239 24.1662 6.739C21.8956 4.5541 18.8669 3.33357 15.7158 3.3335Z" fill="#BDBDBD"/>
</svg>
