<svg width="66" height="66" viewBox="0 0 66 66" fill="none" xmlns="http://www.w3.org/2000/svg">
<path d="M26.8998 2.57507L2.46602 27.7542C-0.375736 31.3536 0.869228 36.4195 1.84693 38.5026L20.1546 57.3556C22.1716 59.7079 26.9853 64.6598 30.1032 65.6488C37.3853 66.9366 39.2314 63.1248 39.1801 63.1763C39.1288 63.2278 25.3853 51.3803 23.334 49.5259C23.1289 48.4133 24.1033 48.3412 24.6161 48.4442C29.334 52.5136 39.2109 60.9922 40.975 62.3521C43.9288 60.4565 45.898 57.6818 46.5134 56.5314C41.2212 52.0091 30.536 42.8564 30.133 42.4238C29.4244 41.5026 30.344 41.18 30.8923 41.1338C35.1943 44.8069 44.6648 52.8011 48.131 55.3938C51.5972 52.727 53.2627 50.2701 53.6622 49.375C48.9914 44.992 39.3181 35.9484 37.9906 34.8372C36.8106 33.4297 38.0521 33.2631 38.8203 33.3557L55.2293 48.3564C57.0116 46.8749 60.5761 43.5969 60.5761 42.3376C57.534 37.3373 46.0108 26.6887 43.7983 25.1145C41.5858 23.5403 38.2672 23.8181 37.2531 23.8181C36.4419 23.8181 35.0714 25.1145 34.4875 25.7627C33.1662 27.2751 29.7988 30.3185 26.8998 30.3925C23.2759 30.4851 19.9222 27.7542 20.3832 25.7627C23.4253 24.5589 26.0987 19.8365 26.8998 18.5401C27.7009 17.2437 28.6799 15.3918 31.1689 12.4287C33.1601 10.0582 42.3848 9.77422 46.7482 9.92854C46.1472 9.15722 43.9416 6.70419 39.9279 3.06273C35.9142 -0.57874 29.5701 1.22035 26.8998 2.57507Z" fill="#F8F8F8"/>
<path d="M29.2185 17.748C28.2725 20.7171 24.068 24.9073 22.084 26.6312C23.3906 29.4742 28.1347 28.562 28.9573 28.3784C29.7798 28.1948 32.2475 26.0833 34.9437 23.1915C38.6909 21.4472 41.4784 22.4112 43.8777 23.4254C50.5964 26.4705 58.464 36.4598 61.5581 41.0739C61.5581 41.0739 61.8716 41.2856 62.457 41.0739C68.358 34.4454 64.9157 27.9019 62.457 25.4587L49.1222 12.057C48.7117 11.8591 46.4619 11.4534 40.747 11.4138C33.6034 11.3643 30.4011 14.0365 29.2185 17.748Z" fill="#F7AD2A"/>
</svg>
