<svg width="80" height="80" viewBox="0 0 80 80" fill="none" xmlns="http://www.w3.org/2000/svg">
<g filter="url(#filter0_d_6403_48815)">
<circle cx="39.9973" cy="37.8762" r="35.4427" fill="white"/>
</g>
<g clip-path="url(#clip0_6403_48815)">
<path d="M23.4566 24.8799H56.5364C57.836 24.8799 58.8993 25.9432 58.8993 27.2427V48.5083C58.8993 49.8079 57.836 50.8712 56.5364 50.8712H23.4566C22.157 50.8712 21.0938 49.8079 21.0938 48.5083V27.2427C21.0938 25.9432 22.157 24.8799 23.4566 24.8799Z" fill="#00537A"/>
<path d="M21.0938 28.4248H58.8993V34.3319H21.0938V28.4248Z" fill="#D6D6FF"/>
<path d="M25.8177 20.1543H39.9948C41.9441 20.1543 43.539 21.7492 43.539 23.6986V52.0527C43.539 54.002 41.9441 55.597 39.9948 55.597H25.8177C23.8684 55.597 22.2734 54.002 22.2734 52.0527V23.6986C22.2734 21.7492 23.8684 20.1543 25.8177 20.1543Z" fill="#D7F1FF"/>
<path d="M39.9965 56.7791H25.8194C23.2203 56.7791 21.0938 54.6526 21.0938 52.0534V23.6993C21.0938 21.1002 23.2203 18.9736 25.8194 18.9736H39.9965C42.5956 18.9736 44.7222 21.1002 44.7222 23.6993V52.0534C44.7222 54.6526 42.5956 56.7791 39.9965 56.7791ZM25.8194 21.3365C24.5199 21.3365 23.4566 22.3998 23.4566 23.6993V52.0534C23.4566 53.353 24.5199 54.4163 25.8194 54.4163H39.9965C41.2961 54.4163 42.3593 53.353 42.3593 52.0534V23.6993C42.3593 22.3998 41.2961 21.3365 39.9965 21.3365H25.8194Z" fill="url(#paint0_linear_6403_48815)"/>
<path d="M35.8598 23.6988H29.9527C28.6531 23.6988 27.5898 22.6355 27.5898 21.3359H38.2226C38.2226 22.6355 37.1594 23.6988 35.8598 23.6988Z" fill="#0079B1"/>
<path d="M32.9088 44.9642C36.8237 44.9642 39.9974 41.7905 39.9974 37.8756C39.9974 33.9608 36.8237 30.7871 32.9088 30.7871C28.994 30.7871 25.8203 33.9608 25.8203 37.8756C25.8203 41.7905 28.994 44.9642 32.9088 44.9642Z" fill="url(#paint1_linear_6403_48815)"/>
<path d="M32.9071 43.7839C36.1695 43.7839 38.8142 41.1392 38.8142 37.8768C38.8142 34.6144 36.1695 31.9697 32.9071 31.9697C29.6447 31.9697 27 34.6144 27 37.8768C27 41.1392 29.6447 43.7839 32.9071 43.7839Z" fill="#7ECE67"/>
<path d="M32.9067 40.2394C32.5523 40.2394 32.7295 40.2984 30.1303 37.6993C29.8941 37.463 29.8941 37.1086 30.1303 36.8723C30.3666 36.636 30.721 36.636 30.9573 36.8723L32.9067 38.8217L36.0375 35.6909C36.2737 35.4546 36.6282 35.4546 36.8644 35.6909C37.1007 35.9272 37.1007 36.2816 36.8644 36.5179C32.9658 40.4166 33.2611 40.2394 32.9067 40.2394Z" fill="url(#paint2_linear_6403_48815)"/>
<path d="M38.8151 52.0535H27.0009C26.6464 52.0535 26.4102 51.8172 26.4102 51.4628C26.4102 51.1084 26.6464 50.8721 27.0009 50.8721H38.8151C39.1695 50.8721 39.4058 51.1084 39.4058 51.4628C39.4058 51.8172 39.1695 52.0535 38.8151 52.0535Z" fill="url(#paint3_linear_6403_48815)"/>
<path d="M55.355 47.9183H48.2665C47.9121 47.9183 47.6758 47.682 47.6758 47.3276V44.9647C47.6758 44.6103 47.9121 44.374 48.2665 44.374H55.355C55.7095 44.374 55.9457 44.6103 55.9457 44.9647V47.3276C55.9457 47.682 55.7095 47.9183 55.355 47.9183Z" fill="#D6D6FF"/>
</g>
<defs>
<filter id="filter0_d_6403_48815" x="0.419711" y="0.0707501" width="79.1567" height="79.1552" filterUnits="userSpaceOnUse" color-interpolation-filters="sRGB">
<feFlood flood-opacity="0" result="BackgroundImageFix"/>
<feColorMatrix in="SourceAlpha" type="matrix" values="0 0 0 0 0 0 0 0 0 0 0 0 0 0 0 0 0 0 127 0" result="hardAlpha"/>
<feOffset dy="1.77213"/>
<feGaussianBlur stdDeviation="2.06749"/>
<feComposite in2="hardAlpha" operator="out"/>
<feColorMatrix type="matrix" values="0 0 0 0 0.204167 0 0 0 0 0.204167 0 0 0 0 0.204167 0 0 0 0.1 0"/>
<feBlend mode="normal" in2="BackgroundImageFix" result="effect1_dropShadow_6403_48815"/>
<feBlend mode="normal" in="SourceGraphic" in2="effect1_dropShadow_6403_48815" result="shape"/>
</filter>
<linearGradient id="paint0_linear_6403_48815" x1="21.0938" y1="37.8764" x2="44.7222" y2="37.8764" gradientUnits="userSpaceOnUse">
<stop stop-color="#3477B3"/>
<stop offset="1" stop-color="#3477B3"/>
</linearGradient>
<linearGradient id="paint1_linear_6403_48815" x1="25.8203" y1="37.8756" x2="39.9974" y2="37.8756" gradientUnits="userSpaceOnUse">
<stop stop-color="#8CDD79"/>
<stop offset="1" stop-color="#D4E6B6"/>
</linearGradient>
<linearGradient id="paint2_linear_6403_48815" x1="29.9508" y1="37.8759" x2="37.044" y2="37.8759" gradientUnits="userSpaceOnUse">
<stop stop-color="#D4D8E1"/>
<stop offset="1" stop-color="#F3F4F5"/>
</linearGradient>
<linearGradient id="paint3_linear_6403_48815" x1="26.4102" y1="51.4628" x2="39.4058" y2="51.4628" gradientUnits="userSpaceOnUse">
<stop stop-color="#3477B3"/>
<stop offset="1" stop-color="#3477B3"/>
</linearGradient>
<clipPath id="clip0_6403_48815">
<rect width="37.8055" height="37.8055" fill="white" transform="translate(21.0938 18.9736)"/>
</clipPath>
</defs>
</svg>
