<svg width="51" height="51" viewBox="0 0 51 51" fill="none" xmlns="http://www.w3.org/2000/svg">
<circle cx="25.876" cy="25.5" r="25" fill="#F0F5FB"/>
<g clip-path="url(#clip0_229_991)">
<path d="M39.876 14.0156C39.876 12.6565 38.7742 11.5547 37.415 11.5547H14.3369C12.9778 11.5547 11.876 12.6565 11.876 14.0156V18.9375L12.4229 19.4844H39.3291C39.5427 19.2708 39.6624 19.1511 39.876 18.9375V14.0156Z" fill="#0096E0"/>
<path d="M35.7197 14.8359H30.7979C30.3448 14.8359 29.9775 15.2032 29.9775 15.6562C29.9775 16.1093 30.3448 16.4766 30.7979 16.4766H35.7197C36.1728 16.4766 36.54 16.1093 36.54 15.6562C36.54 15.2032 36.1728 14.8359 35.7197 14.8359Z" fill="#0096E0"/>
<path d="M22.5947 16.4766C23.0478 16.4766 23.415 16.1093 23.415 15.6562C23.415 15.2032 23.0478 14.8359 22.5947 14.8359C22.1417 14.8359 21.7744 15.2032 21.7744 15.6562C21.7744 16.1093 22.1417 16.4766 22.5947 16.4766Z" fill="#AADDFF"/>
<path d="M19.3135 16.4766C19.7665 16.4766 20.1338 16.1093 20.1338 15.6562C20.1338 15.2032 19.7665 14.8359 19.3135 14.8359C18.8604 14.8359 18.4932 15.2032 18.4932 15.6562C18.4932 16.1093 18.8604 16.4766 19.3135 16.4766Z" fill="#AADDFF"/>
<path d="M16.0322 16.4766C16.4853 16.4766 16.8525 16.1093 16.8525 15.6562C16.8525 15.2032 16.4853 14.8359 16.0322 14.8359C15.5792 14.8359 15.2119 15.2032 15.2119 15.6562C15.2119 16.1093 15.5792 16.4766 16.0322 16.4766Z" fill="#AADDFF"/>
<path d="M11.876 18.9375V36.9844C11.876 38.3413 12.98 39.4453 14.3369 39.4453H37.415C38.772 39.4453 39.876 38.3413 39.876 36.9844V18.9375H11.876Z" fill="#AADDFF"/>
<path d="M28.6603 22.2853C28.2439 22.1068 27.7616 22.2997 27.5832 22.7161L22.6613 34.2005C22.4828 34.6169 22.6757 35.0992 23.0921 35.2776C23.5087 35.4561 23.9908 35.2631 24.1692 34.8468L29.0911 23.3624C29.2696 22.946 29.0767 22.4637 28.6603 22.2853V22.2853Z" fill="#0096E0"/>
<path d="M21.4663 31.4219L18.1655 28.7812L21.4663 26.1405C21.8201 25.8575 21.8775 25.3413 21.5944 24.9876C21.3114 24.6338 20.7951 24.5765 20.4415 24.8595L16.3399 28.1407C15.9298 28.4687 15.9295 29.0936 16.3399 29.4218L20.4415 32.7031C20.7952 32.9861 21.3115 32.9287 21.5944 32.575C21.8775 32.2211 21.8201 31.7049 21.4663 31.4219V31.4219Z" fill="#0096E0"/>
<path d="M35.4119 28.1408L31.3103 24.8595C30.9565 24.5764 30.4403 24.6338 30.1573 24.9876C29.8743 25.3414 29.9316 25.8576 30.2855 26.1406L33.5863 28.7813L30.2855 31.422C29.9316 31.705 29.8743 32.2212 30.1573 32.575C30.4407 32.9291 30.957 32.9858 31.3103 32.7031L35.4119 29.4218C35.822 29.0939 35.8222 28.469 35.4119 28.1408Z" fill="#0096E0"/>
<path d="M35.7197 14.8359H30.7979C30.3448 14.8359 29.9775 15.2032 29.9775 15.6562C29.9775 16.1093 30.3448 16.4766 30.7979 16.4766H35.7197C36.1728 16.4766 36.54 16.1093 36.54 15.6562C36.54 15.2032 36.1728 14.8359 35.7197 14.8359Z" fill="#AADDFF"/>
</g>
<defs>
<clipPath id="clip0_229_991">
<rect width="28" height="28" fill="white" transform="translate(11.876 11.5)"/>
</clipPath>
</defs>
</svg>
