<svg width="51" height="51" viewBox="0 0 51 51" fill="none" xmlns="http://www.w3.org/2000/svg">
<circle cx="25.876" cy="25.5" r="25" fill="#F0F5FB"/>
<path d="M32.3815 9.5H19.37C18.1076 9.5 17.0806 10.5273 17.0806 11.7898V39.2102C17.0806 40.4727 18.1076 41.5 19.37 41.5H32.3815C33.644 41.5 34.6713 40.4727 34.6713 39.2102V11.7898C34.6713 10.5273 33.644 9.5 32.3815 9.5V9.5Z" fill="#0096E0"/>
<path d="M21.4894 11.198C21.3655 11.0138 21.2931 10.7922 21.2931 10.5535C21.2931 10.085 21.5721 9.68245 21.9723 9.5H19.3703C18.1058 9.5 17.0806 10.5253 17.0806 11.7898V39.2102C17.0806 40.4747 18.1058 41.4997 19.3703 41.4997H22.1365V13.2047C22.1365 12.4846 21.8914 11.7957 21.4894 11.198V11.198Z" fill="#0096E0"/>
<path d="M18.4058 23.9629V39.2106C18.4058 39.7432 18.8375 40.1749 19.3698 40.1749H32.3813C32.9136 40.1749 33.3453 39.7432 33.3453 39.2106C33.3453 38.6873 33.3453 31.0491 33.3453 23.9629H18.4058Z" fill="#AADDFF"/>
<path d="M23.647 28.5626C23.647 29.3969 22.9708 30.0731 22.1365 30.0731C21.3022 30.0731 20.626 29.3969 20.626 28.5626C20.626 27.7283 21.3022 27.0518 22.1365 27.0518C22.9708 27.0518 23.647 27.7283 23.647 28.5626V28.5626Z" fill="#0096E0" fill-opacity="0.4"/>
<path d="M23.647 34.1638C23.647 34.9981 22.9708 35.6747 22.1365 35.6747C21.3022 35.6747 20.626 34.9981 20.626 34.1638C20.626 33.3296 21.3022 32.6533 22.1365 32.6533C22.9708 32.6533 23.647 33.3296 23.647 34.1638V34.1638Z" fill="#0096E0" fill-opacity="0.4"/>
<path d="M21.9658 27.0615C21.2119 27.1466 20.626 27.7854 20.626 28.562C20.626 29.3963 21.3022 30.0726 22.1365 30.0726C22.6568 30.0726 23.1153 29.8095 23.3869 29.4093C22.0844 29.5561 21.2551 28.1083 21.9658 27.0615V27.0615Z" fill="#0096E0"/>
<path d="M21.9658 32.6631C21.2119 32.7478 20.626 33.387 20.626 34.1633C20.626 34.9979 21.3022 35.6741 22.1365 35.6741C22.6568 35.6741 23.1153 35.411 23.3869 35.0108C22.0924 35.1565 21.2504 33.7166 21.9658 32.6631Z" fill="#0096E0"/>
<path d="M28.3093 27.9337H26.1646C25.8527 27.9337 25.5996 27.6807 25.5996 27.3687C25.5996 27.0565 25.8527 26.8037 26.1646 26.8037H28.3093C28.6212 26.8037 28.8743 27.0565 28.8743 27.3687C28.8743 27.6807 28.6212 27.9337 28.3093 27.9337Z" fill="#0096E0"/>
<path d="M30.454 30.3195H26.1646C25.8524 30.3195 25.5996 30.0664 25.5996 29.7545C25.5996 29.4422 25.8524 29.1895 26.1646 29.1895H30.454C30.7659 29.1895 31.019 29.4422 31.019 29.7545C31.019 30.0664 30.7659 30.3195 30.454 30.3195Z" fill="#0096E0"/>
<path d="M28.3093 33.5353H26.1646C25.8527 33.5353 25.5996 33.2825 25.5996 32.9703C25.5996 32.6581 25.8527 32.4053 26.1646 32.4053H28.3093C28.6212 32.4053 28.8743 32.6581 28.8743 32.9703C28.8743 33.2825 28.6212 33.5353 28.3093 33.5353Z" fill="#0096E0"/>
<path d="M30.454 35.921H26.1646C25.8524 35.921 25.5996 35.6683 25.5996 35.356C25.5996 35.0441 25.8524 34.791 26.1646 34.791H30.454C30.7659 34.791 31.019 35.0441 31.019 35.356C31.019 35.6683 30.7659 35.921 30.454 35.921Z" fill="#0096E0"/>
<path d="M32.3745 10.8262H30.4408C30.2583 10.8262 30.1106 10.9739 30.1106 11.1561C30.1106 11.5936 29.7527 11.9515 29.3154 11.9515H22.4226C21.985 11.9515 21.6271 11.5936 21.6271 11.1561C21.6271 10.9739 21.4794 10.8262 21.297 10.8262H19.3633C18.8306 10.8262 18.3989 11.2579 18.3989 11.7902V24.1137H33.3388V11.7902C33.3388 11.2579 32.9071 10.8262 32.3745 10.8262V10.8262Z" fill="#AADDFF"/>
<path d="M23.4401 15.3166H20.8345C20.5226 15.3166 20.2695 15.0638 20.2695 14.7515C20.2695 14.4393 20.5226 14.1865 20.8345 14.1865H23.4401C23.752 14.1865 24.0051 14.4393 24.0051 14.7515C24.0051 15.0635 23.752 15.3166 23.4401 15.3166Z" fill="#0096E0"/>
</svg>
