<svg width="65" height="65" viewBox="0 0 65 65" fill="none" xmlns="http://www.w3.org/2000/svg">
<g filter="url(#filter0_d_4740_20490)">
<circle cx="32.875" cy="31.5" r="25" fill="#F0F5FB"/>
</g>
<g clip-path="url(#clip0_4740_20490)">
<path opacity="0.4" d="M35.6533 33.8196C35.1587 35.1152 34.1101 36.1367 32.7969 36.5945V38.2698C32.7969 42.0659 34.9148 45.5449 38.2871 47.2883L38.6965 47.5L39.106 47.2883C42.4783 45.5449 44.5962 42.0659 44.5962 38.2698V36.5945C43.2832 36.1367 42.2344 35.1152 41.7397 33.8196H35.6533ZM42.1443 38.593L37.9858 42.6123L35.1572 39.9412L36.4441 38.5786L37.9707 40.0205L40.8418 37.2456L42.1443 38.593Z" fill="#0096E0"/>
<path d="M30.9243 38.2698V35.2632L32.1814 34.8249C32.9758 34.5478 33.6038 33.938 33.9041 33.1514L34.3643 31.9456H39.8428C38.8696 29.385 36.8398 27.3406 34.2876 26.3501C35.7993 25.262 36.7856 23.4878 36.7856 21.4875C36.7856 18.186 34.0996 15.5 30.7981 15.5C27.4966 15.5 24.8105 18.186 24.8105 21.4875C24.8105 23.4878 25.7966 25.2622 27.3083 26.3501C23.6941 27.7529 21.125 31.2676 21.125 35.3713V40.887H31.2126C31.022 40.0315 30.9243 39.154 30.9243 38.2698Z" fill="#0096E0"/>
</g>
<defs>
<filter id="filter0_d_4740_20490" x="0.875" y="0.5" width="64" height="64" filterUnits="userSpaceOnUse" color-interpolation-filters="sRGB">
<feFlood flood-opacity="0" result="BackgroundImageFix"/>
<feColorMatrix in="SourceAlpha" type="matrix" values="0 0 0 0 0 0 0 0 0 0 0 0 0 0 0 0 0 0 127 0" result="hardAlpha"/>
<feOffset dy="1"/>
<feGaussianBlur stdDeviation="3.5"/>
<feComposite in2="hardAlpha" operator="out"/>
<feColorMatrix type="matrix" values="0 0 0 0 0 0 0 0 0 0 0 0 0 0 0 0 0 0 0.09 0"/>
<feBlend mode="normal" in2="BackgroundImageFix" result="effect1_dropShadow_4740_20490"/>
<feBlend mode="normal" in="SourceGraphic" in2="effect1_dropShadow_4740_20490" result="shape"/>
</filter>
<clipPath id="clip0_4740_20490">
<rect width="32" height="32" fill="white" transform="translate(16.875 15.5)"/>
</clipPath>
</defs>
</svg>
