<svg width="65" height="65" viewBox="0 0 65 65" fill="none" xmlns="http://www.w3.org/2000/svg">
<g filter="url(#filter0_d_4740_20450)">
<circle cx="32.875" cy="31.5" r="25" fill="#F0F5FB"/>
</g>
<path d="M39.3791 15.5H26.3676C25.1052 15.5 24.0781 16.5273 24.0781 17.7898V45.2102C24.0781 46.4727 25.1052 47.5 26.3676 47.5H39.3791C40.6415 47.5 41.6689 46.4727 41.6689 45.2102V17.7898C41.6689 16.5273 40.6415 15.5 39.3791 15.5V15.5Z" fill="#0096E0"/>
<path d="M28.487 17.198C28.3631 17.0138 28.2907 16.7922 28.2907 16.5535C28.2907 16.085 28.5697 15.6825 28.9699 15.5H26.3679C25.1034 15.5 24.0781 16.5253 24.0781 17.7898V45.2102C24.0781 46.4747 25.1034 47.4997 26.3679 47.4997H29.1341V19.2047C29.1341 18.4846 28.889 17.7957 28.487 17.198Z" fill="#0096E0"/>
<path d="M25.4023 29.9625V45.2102C25.4023 45.7428 25.834 46.1745 26.3664 46.1745H39.3779C39.9102 46.1745 40.3419 45.7428 40.3419 45.2102C40.3419 44.687 40.3419 37.0487 40.3419 29.9625H25.4023Z" fill="#AADDFF"/>
<path d="M30.646 34.5621C30.646 35.3964 29.9698 36.0726 29.1355 36.0726C28.3012 36.0726 27.625 35.3964 27.625 34.5621C27.625 33.7278 28.3012 33.0513 29.1355 33.0513C29.9698 33.0513 30.646 33.7278 30.646 34.5621Z" fill="#0096E0" fill-opacity="0.4"/>
<path d="M30.646 40.1634C30.646 40.9976 29.9698 41.6742 29.1355 41.6742C28.3012 41.6742 27.625 40.9976 27.625 40.1634C27.625 39.3291 28.3012 38.6528 29.1355 38.6528C29.9698 38.6528 30.646 39.3291 30.646 40.1634Z" fill="#0096E0" fill-opacity="0.4"/>
<path d="M28.9648 33.0616C28.2109 33.1466 27.625 33.7855 27.625 34.5621C27.625 35.3964 28.3012 36.0726 29.1355 36.0726C29.6558 36.0726 30.1143 35.8095 30.3859 35.4093C29.0834 35.5562 28.2542 34.1083 28.9648 33.0616Z" fill="#0096E0"/>
<path d="M28.9648 38.6631C28.2109 38.7479 27.625 39.3871 27.625 40.1634C27.625 40.9979 28.3012 41.6742 29.1355 41.6742C29.6558 41.6742 30.1143 41.4111 30.3859 41.0109C29.0914 41.1566 28.2495 39.7167 28.9648 38.6631Z" fill="#0096E0"/>
<path d="M35.3074 33.934H33.1627C32.8507 33.934 32.5977 33.6809 32.5977 33.369C32.5977 33.0567 32.8507 32.804 33.1627 32.804H35.3074C35.6193 32.804 35.8724 33.0567 35.8724 33.369C35.8724 33.6809 35.6193 33.934 35.3074 33.934Z" fill="#0096E0"/>
<path d="M37.452 36.32H33.1627C32.8504 36.32 32.5977 36.0669 32.5977 35.755C32.5977 35.4427 32.8504 35.1899 33.1627 35.1899H37.452C37.764 35.1899 38.017 35.4427 38.017 35.755C38.017 36.0669 37.764 36.32 37.452 36.32Z" fill="#0096E0"/>
<path d="M35.3074 39.5352H33.1627C32.8507 39.5352 32.5977 39.2825 32.5977 38.9702C32.5977 38.658 32.8507 38.4052 33.1627 38.4052H35.3074C35.6193 38.4052 35.8724 38.658 35.8724 38.9702C35.8724 39.2825 35.6193 39.5352 35.3074 39.5352Z" fill="#0096E0"/>
<path d="M37.452 41.9212H33.1627C32.8504 41.9212 32.5977 41.6684 32.5977 41.3562C32.5977 41.0443 32.8504 40.7912 33.1627 40.7912H37.452C37.764 40.7912 38.017 41.0443 38.017 41.3562C38.017 41.6684 37.764 41.9212 37.452 41.9212Z" fill="#0096E0"/>
<path d="M39.374 16.8257H37.4403C37.2578 16.8257 37.1101 16.9735 37.1101 17.1556C37.1101 17.5932 36.7522 17.9511 36.315 17.9511H29.4221C28.9845 17.9511 28.6267 17.5932 28.6267 17.1556C28.6267 16.9735 28.4789 16.8257 28.2965 16.8257H26.3628C25.8301 16.8257 25.3984 17.2574 25.3984 17.7898V30.1132H40.3383V17.7898C40.3383 17.2574 39.9066 16.8257 39.374 16.8257Z" fill="#AADDFF"/>
<path d="M30.4362 21.3164H27.8306C27.5187 21.3164 27.2656 21.0636 27.2656 20.7514C27.2656 20.4392 27.5187 20.1864 27.8306 20.1864H30.4362C30.7481 20.1864 31.0012 20.4392 31.0012 20.7514C31.0012 21.0634 30.7481 21.3164 30.4362 21.3164Z" fill="#0096E0"/>
<defs>
<filter id="filter0_d_4740_20450" x="0.875" y="0.5" width="64" height="64" filterUnits="userSpaceOnUse" color-interpolation-filters="sRGB">
<feFlood flood-opacity="0" result="BackgroundImageFix"/>
<feColorMatrix in="SourceAlpha" type="matrix" values="0 0 0 0 0 0 0 0 0 0 0 0 0 0 0 0 0 0 127 0" result="hardAlpha"/>
<feOffset dy="1"/>
<feGaussianBlur stdDeviation="3.5"/>
<feComposite in2="hardAlpha" operator="out"/>
<feColorMatrix type="matrix" values="0 0 0 0 0 0 0 0 0 0 0 0 0 0 0 0 0 0 0.09 0"/>
<feBlend mode="normal" in2="BackgroundImageFix" result="effect1_dropShadow_4740_20450"/>
<feBlend mode="normal" in="SourceGraphic" in2="effect1_dropShadow_4740_20450" result="shape"/>
</filter>
</defs>
</svg>
