<svg width="80" height="80" viewBox="0 0 80 80" fill="none" xmlns="http://www.w3.org/2000/svg">
<g filter="url(#filter0_d_6403_48857)">
<circle cx="39.9991" cy="38.1358" r="35.21" fill="white"/>
</g>
<g clip-path="url(#clip0_6403_48857)">
<path d="M50.9654 46.2749C50.5632 46.0343 50.1035 45.9072 49.6346 45.9072H47.1526C46.7011 45.9072 46.2511 45.966 45.8148 46.0827L41.6286 47.2023L38.339 48.0828C37.5517 48.2975 36.9807 48.9795 36.908 49.7924C36.9016 49.8939 36.9016 49.9954 36.908 50.0969L29.5131 46.1013C29.1115 45.8708 28.6401 45.7927 28.1854 45.8813C28.0147 45.9116 27.849 45.966 27.6935 46.0431C27.3453 46.2098 27.056 46.4785 26.8648 46.8137C26.6956 47.1096 26.6064 47.4445 26.6055 47.785C26.603 48.4784 26.971 49.1202 27.5705 49.4687L39.3701 56.5268C39.7795 56.7807 40.2519 56.9154 40.7338 56.9154H49.8575C50.1835 56.9154 50.5063 56.8537 50.8095 56.7342L53.5938 55.6333V47.8498L50.9654 46.2749Z" fill="#FFBD85"/>
<path d="M58.7741 56.9145V45.2588H53.5938V56.9145H58.7741Z" fill="#3477B3"/>
<path d="M26.3991 30.3656V19.3574H21.2188V32.3082H26.3991V30.3656Z" fill="#3477B3"/>
<path d="M45.8242 24.5371H58.775V40.0781H45.8242V24.5371Z" fill="#3477B3"/>
<path d="M32.875 24.5371H45.8258V40.0781H32.875V24.5371Z" fill="#3477B3"/>
<path d="M38.7025 27.1279C38.7025 28.9159 37.2529 30.3656 35.4648 30.3656V34.2509C37.2529 34.2509 38.7025 35.7006 38.7025 37.4886H45.8255V27.1279H38.7025Z" fill="#D6D6FF"/>
<path d="M52.9472 27.1279H45.8242V37.4886H52.9472C52.9472 35.7006 54.3969 34.2509 56.1849 34.2509V30.3656C54.3969 30.3656 52.9472 28.9159 52.9472 27.1279Z" fill="#D6D6FF"/>
<path d="M48.4147 32.3079C48.4147 33.7383 47.2549 34.8981 45.8245 34.8981C44.3941 34.8981 43.2344 33.7383 43.2344 32.3079C43.2344 30.8775 44.3941 29.7178 45.8245 29.7178C47.2549 29.7178 48.4147 30.8775 48.4147 32.3079Z" fill="#F1F2F2"/>
<path d="M42.4251 27.1279L39.8349 24.5377H47.0097L43.3464 20.8745C42.3751 19.9032 41.0573 19.3574 39.6835 19.3574H31.5424C31.1405 19.3577 30.7437 19.4513 30.3839 19.6306L28.9323 20.3566C28.544 20.5507 28.1134 20.6443 27.6799 20.6285L26.3984 20.582V30.3656H28.3411L28.8979 30.7346C30.0699 31.5181 31.4665 31.8959 32.8738 31.8096V27.545C34.1468 27.8703 35.4988 27.5579 36.5001 26.7071L39.8997 30.1067C40.6595 30.8664 41.8917 30.8664 42.6518 30.1067C43.4116 29.3466 43.4116 28.1144 42.6518 27.3546L42.4251 27.1279Z" fill="#F7CAA4"/>
<path d="M39.8357 24.5378L38.0742 22.7764H38.7218L40.4832 24.5378H39.8357Z" fill="#FAC08F"/>
<path d="M31.3047 26.7852C31.766 27.1484 32.3007 27.408 32.8717 27.5453L31.3047 26.7852Z" fill="#EBE5DD"/>
<path d="M31.3053 26.785L30.9297 26.4805V27.128L31.3053 27.4325" fill="#FAC08F"/>
<path d="M31.3047 26.7852C31.766 27.1484 32.3007 27.408 32.8717 27.5453V28.1928C32.3007 28.0556 31.766 27.796 31.3047 27.4327" fill="#FAC08F"/>
<path d="M39.036 51.0871L45.764 49.2871L46.0448 50.0324L39.6835 51.7347C39.3867 51.8061 39.0863 51.8624 38.7834 51.9029C38.1048 51.9 37.4766 51.5446 37.125 50.9641C37.4289 51.1523 37.7785 51.2531 38.1358 51.2553C38.4387 51.2149 38.7391 51.1586 39.036 51.0871Z" fill="#FFAF6B"/>
</g>
<defs>
<filter id="filter0_d_6403_48857" x="0.681226" y="0.578446" width="78.6375" height="78.6356" filterUnits="userSpaceOnUse" color-interpolation-filters="sRGB">
<feFlood flood-opacity="0" result="BackgroundImageFix"/>
<feColorMatrix in="SourceAlpha" type="matrix" values="0 0 0 0 0 0 0 0 0 0 0 0 0 0 0 0 0 0 127 0" result="hardAlpha"/>
<feOffset dy="1.7605"/>
<feGaussianBlur stdDeviation="2.05392"/>
<feComposite in2="hardAlpha" operator="out"/>
<feColorMatrix type="matrix" values="0 0 0 0 0.204167 0 0 0 0 0.204167 0 0 0 0 0.204167 0 0 0 0.1 0"/>
<feBlend mode="normal" in2="BackgroundImageFix" result="effect1_dropShadow_6403_48857"/>
<feBlend mode="normal" in="SourceGraphic" in2="effect1_dropShadow_6403_48857" result="shape"/>
</filter>
<clipPath id="clip0_6403_48857">
<rect width="37.5574" height="37.5574" fill="white" transform="translate(21.2188 19.3574)"/>
</clipPath>
</defs>
</svg>
