<svg width="65" height="65" viewBox="0 0 65 65" fill="none" xmlns="http://www.w3.org/2000/svg">
<g filter="url(#filter0_d_4740_20469)">
<circle cx="32.875" cy="31.5" r="25" fill="#F0F5FB"/>
</g>
<g clip-path="url(#clip0_4740_20469)">
<path d="M46.875 20.0156C46.875 18.6565 45.7732 17.5547 44.4141 17.5547H21.3359C19.9768 17.5547 18.875 18.6565 18.875 20.0156V24.9375L19.4219 25.4844H46.3281C46.5417 25.2708 46.6614 25.1511 46.875 24.9375V20.0156Z" fill="#0096E0"/>
<path d="M42.7188 20.8359H37.7969C37.3438 20.8359 36.9766 21.2032 36.9766 21.6562C36.9766 22.1093 37.3438 22.4766 37.7969 22.4766H42.7188C43.1718 22.4766 43.5391 22.1093 43.5391 21.6562C43.5391 21.2032 43.1718 20.8359 42.7188 20.8359Z" fill="#0096E0"/>
<path d="M29.5938 22.4766C30.0468 22.4766 30.4141 22.1093 30.4141 21.6562C30.4141 21.2032 30.0468 20.8359 29.5938 20.8359C29.1407 20.8359 28.7734 21.2032 28.7734 21.6562C28.7734 22.1093 29.1407 22.4766 29.5938 22.4766Z" fill="#AADDFF"/>
<path d="M26.3125 22.4766C26.7655 22.4766 27.1328 22.1093 27.1328 21.6562C27.1328 21.2032 26.7655 20.8359 26.3125 20.8359C25.8595 20.8359 25.4922 21.2032 25.4922 21.6562C25.4922 22.1093 25.8595 22.4766 26.3125 22.4766Z" fill="#AADDFF"/>
<path d="M23.0312 22.4766C23.4843 22.4766 23.8516 22.1093 23.8516 21.6562C23.8516 21.2032 23.4843 20.8359 23.0312 20.8359C22.5782 20.8359 22.2109 21.2032 22.2109 21.6562C22.2109 22.1093 22.5782 22.4766 23.0312 22.4766Z" fill="#AADDFF"/>
<path d="M18.875 24.9375V42.9844C18.875 44.3413 19.979 45.4453 21.3359 45.4453H44.4141C45.771 45.4453 46.875 44.3413 46.875 42.9844V24.9375H18.875Z" fill="#AADDFF"/>
<path d="M35.6593 28.285C35.2429 28.1066 34.7606 28.2995 34.5822 28.7159L29.6603 40.2002C29.4818 40.6166 29.6747 41.0989 30.0911 41.2774C30.5077 41.4559 30.9899 41.2628 31.1683 40.8465L36.0901 29.3622C36.2686 28.9457 36.0757 28.4635 35.6593 28.285Z" fill="#0096E0"/>
<path d="M28.4653 37.4219L25.1645 34.7812L28.4653 32.1405C28.8192 31.8575 28.8765 31.3413 28.5935 30.9876C28.3104 30.6338 27.7941 30.5765 27.4405 30.8595L23.3389 34.1407C22.9288 34.4687 22.9286 35.0936 23.3389 35.4218L27.4405 38.7031C27.7943 38.9861 28.3106 38.9287 28.5935 38.575C28.8765 38.2211 28.8192 37.7049 28.4653 37.4219Z" fill="#0096E0"/>
<path d="M42.4109 34.1407L38.3093 30.8594C37.9556 30.5764 37.4393 30.6338 37.1564 30.9875C36.8733 31.3413 36.9307 31.8575 37.2845 32.1405L40.5853 34.7813L37.2845 37.4219C36.9307 37.705 36.8733 38.2212 37.1564 38.5749C37.4397 38.9291 37.9561 38.9857 38.3093 38.703L42.4109 35.4218C42.821 35.0938 42.8213 34.4689 42.4109 34.1407Z" fill="#0096E0"/>
<path d="M42.7188 20.8359H37.7969C37.3438 20.8359 36.9766 21.2032 36.9766 21.6562C36.9766 22.1093 37.3438 22.4766 37.7969 22.4766H42.7188C43.1718 22.4766 43.5391 22.1093 43.5391 21.6562C43.5391 21.2032 43.1718 20.8359 42.7188 20.8359Z" fill="#AADDFF"/>
</g>
<defs>
<filter id="filter0_d_4740_20469" x="0.875" y="0.5" width="64" height="64" filterUnits="userSpaceOnUse" color-interpolation-filters="sRGB">
<feFlood flood-opacity="0" result="BackgroundImageFix"/>
<feColorMatrix in="SourceAlpha" type="matrix" values="0 0 0 0 0 0 0 0 0 0 0 0 0 0 0 0 0 0 127 0" result="hardAlpha"/>
<feOffset dy="1"/>
<feGaussianBlur stdDeviation="3.5"/>
<feComposite in2="hardAlpha" operator="out"/>
<feColorMatrix type="matrix" values="0 0 0 0 0 0 0 0 0 0 0 0 0 0 0 0 0 0 0.09 0"/>
<feBlend mode="normal" in2="BackgroundImageFix" result="effect1_dropShadow_4740_20469"/>
<feBlend mode="normal" in="SourceGraphic" in2="effect1_dropShadow_4740_20469" result="shape"/>
</filter>
<clipPath id="clip0_4740_20469">
<rect width="28" height="28" fill="white" transform="translate(18.875 17.5)"/>
</clipPath>
</defs>
</svg>
