<svg width="51" height="51" viewBox="0 0 51 51" fill="none" xmlns="http://www.w3.org/2000/svg">
<circle cx="25.876" cy="25.5" r="25" fill="#F0F5FB"/>
<g clip-path="url(#clip0_229_1012)">
<path opacity="0.4" d="M28.6558 27.8193C28.1611 29.115 27.1125 30.1365 25.7993 30.5942V32.2695C25.7993 36.0657 27.9172 39.5447 31.2896 41.2881L31.699 41.4998L32.1084 41.2881C35.4807 39.5447 37.5986 36.0657 37.5986 32.2695V30.5942C36.2856 30.1365 35.2368 29.115 34.7422 27.8193H28.6558ZM35.1467 32.5928L30.9883 36.6121L28.1597 33.9409L29.4465 32.5784L30.9731 34.0203L33.8442 31.2454L35.1467 32.5928Z" fill="#0096E0"/>
<path d="M23.9253 32.2698V29.2632L25.1824 28.8249C25.9768 28.5478 26.6047 27.938 26.905 27.1514L27.3652 25.9456H32.8438C31.8706 23.385 29.8408 21.3406 27.2886 20.3501C28.8003 19.262 29.7866 17.4878 29.7866 15.4875C29.7866 12.186 27.1006 9.5 23.7991 9.5C20.4976 9.5 17.8115 12.186 17.8115 15.4875C17.8115 17.4878 18.7976 19.2622 20.3093 20.3501C16.6951 21.7529 14.126 25.2676 14.126 29.3713V34.887H24.2136C24.0229 34.0315 23.9253 33.154 23.9253 32.2698Z" fill="#0096E0"/>
</g>
<defs>
<clipPath id="clip0_229_1012">
<rect width="32" height="32" fill="white" transform="translate(9.87598 9.5)"/>
</clipPath>
</defs>
</svg>
