<svg width="80" height="80" viewBox="0 0 80 80" fill="none" xmlns="http://www.w3.org/2000/svg">
<g filter="url(#filter0_d_6403_48842)">
<circle cx="39.9991" cy="38.46" r="35.21" fill="white"/>
</g>
<g clip-path="url(#clip0_6403_48842)">
<path d="M52.5166 28.9932V34.3451C51.2803 33.9695 49.9658 33.7661 48.6043 33.7661C41.265 33.7661 35.3028 39.7283 35.3028 47.0677C35.3028 48.4291 35.5062 49.7436 35.8818 50.9799H22.6115C21.8447 50.9799 21.2188 50.3539 21.2188 49.5871V28.9932H52.5166Z" fill="#3477B3"/>
<path d="M52.5166 28.9865H21.2188L25.9056 20.5439C26.192 20.0197 26.7679 19.6816 27.3766 19.6816H46.3587C46.9675 19.6816 47.5433 20.0197 47.8297 20.5439L52.5166 28.9865Z" fill="#2D83AD"/>
<path d="M38.1361 19.6816L39.8278 28.9865H33.9062L35.5979 19.6816H38.1361Z" fill="#F8F8F8"/>
<path d="M36.8676 28.9932H21.2188V49.5871C21.2188 50.3539 21.8447 50.9799 22.6115 50.9799H35.8818C35.5062 49.7436 35.3028 48.4291 35.3028 47.0677C35.3028 44.8048 35.8692 42.675 36.8676 40.8081V28.9932Z" fill="#00537A"/>
<path d="M35.5985 19.6816H27.3766C26.7679 19.6816 26.192 20.0197 25.9056 20.5439L21.2188 28.9865H36.8677H33.9069L35.5985 19.6816Z" fill="#2D83AD"/>
<path d="M36.867 19.6816H35.5979L33.9062 28.9865H36.867V19.6816Z" fill="#F8F8F8"/>
<path d="M48.6054 57.2391C42.9968 57.2391 38.4336 52.6758 38.4336 47.0673C38.4336 41.4587 42.9968 36.8955 48.6054 36.8955C54.2139 36.8955 58.7772 41.4587 58.7772 47.0673C58.7772 52.6758 54.2139 57.2391 48.6054 57.2391Z" fill="#4CAF50"/>
<path d="M47.0368 51.3709C46.7254 51.3709 46.4265 51.2473 46.2074 51.0266L43.4689 48.2881C43.0104 47.8296 43.0104 47.0862 43.4689 46.6277C43.9274 46.1692 44.6707 46.1692 45.1292 46.6277L46.9774 48.4743L51.237 43.559C51.6611 43.0707 52.4013 43.016 52.8927 43.4401C53.3825 43.8641 53.4357 44.6059 53.0116 45.0957L47.9257 50.964C47.7113 51.2097 47.4061 51.3568 47.0807 51.3678L47.0368 51.3709Z" fill="white"/>
<path d="M48.6054 36.8955C42.9968 36.8955 38.4336 41.4587 38.4336 47.0673C38.4336 52.6758 42.9968 57.2391 48.6054 57.2391V50.183L47.9278 50.9654C47.7134 51.2111 47.4082 51.3582 47.0827 51.3692H47.0405C46.7291 51.3692 46.4302 51.2455 46.2111 51.0249L43.4725 48.2863C43.014 47.8278 43.014 47.0845 43.4725 46.626C43.701 46.3975 44.0015 46.2817 44.3019 46.2817C44.6024 46.2817 44.9028 46.396 45.1313 46.626L46.9795 48.4726L48.6054 46.5963V36.8955Z" fill="#429846"/>
<path d="M44.2983 46.2852C43.9978 46.2852 43.6974 46.3994 43.4689 46.6294C43.0104 47.0879 43.0104 47.8313 43.4689 48.2898L46.2074 51.0283C46.4281 51.249 46.727 51.3726 47.0368 51.3726H47.0791C47.4046 51.3617 47.7097 51.2146 47.9241 50.9689L48.6017 50.1864V46.6013L46.9758 48.476L45.1277 46.6294C44.8992 46.3994 44.5987 46.2852 44.2983 46.2852Z" fill="#DEDEDE"/>
</g>
<defs>
<filter id="filter0_d_6403_48842" x="0.681226" y="0.902665" width="78.6375" height="78.6356" filterUnits="userSpaceOnUse" color-interpolation-filters="sRGB">
<feFlood flood-opacity="0" result="BackgroundImageFix"/>
<feColorMatrix in="SourceAlpha" type="matrix" values="0 0 0 0 0 0 0 0 0 0 0 0 0 0 0 0 0 0 127 0" result="hardAlpha"/>
<feOffset dy="1.7605"/>
<feGaussianBlur stdDeviation="2.05392"/>
<feComposite in2="hardAlpha" operator="out"/>
<feColorMatrix type="matrix" values="0 0 0 0 0.204167 0 0 0 0 0.204167 0 0 0 0 0.204167 0 0 0 0.1 0"/>
<feBlend mode="normal" in2="BackgroundImageFix" result="effect1_dropShadow_6403_48842"/>
<feBlend mode="normal" in="SourceGraphic" in2="effect1_dropShadow_6403_48842" result="shape"/>
</filter>
<clipPath id="clip0_6403_48842">
<rect width="37.5574" height="37.5574" fill="white" transform="translate(21.2188 19.6816)"/>
</clipPath>
</defs>
</svg>
