<svg width="80" height="80" viewBox="0 0 80 80" fill="none" xmlns="http://www.w3.org/2000/svg">
<g filter="url(#filter0_d_6403_48752)">
<circle cx="39.9991" cy="38.4327" r="35.21" fill="white"/>
</g>
<g clip-path="url(#clip0_6403_48752)">
<path d="M51.7159 44.6606H28.7695V21.2933C28.7695 20.3881 29.5034 19.6543 30.4086 19.6543H54.5023L51.7159 22.592V44.6606Z" fill="#D6D6FF"/>
<path d="M37.2216 34.3665C35.9169 34.3665 35.3549 33.4202 35.0989 32.8034C33.981 33.351 33.0198 33.5774 32.9356 33.5966C32.7195 33.6459 32.5047 33.5108 32.4555 33.2949C32.4061 33.079 32.5413 32.864 32.7572 32.8147C32.7841 32.8085 33.7289 32.5835 34.805 32.0469C34.173 30.3621 34.8539 28.463 36.4354 27.6252C37.5532 26.9556 38.974 28.192 38.5078 29.3949C38.0259 30.787 36.9147 31.7618 35.8098 32.4195C36.0867 33.1293 36.5342 33.7732 37.759 33.4998C38.2377 33.3929 38.5965 32.9935 38.6316 32.5284C38.6332 32.5073 38.6342 32.4857 38.6345 32.4637C38.6371 32.2816 38.7621 32.1241 38.9388 32.0802C39.1158 32.0366 39.2998 32.1172 39.3872 32.2769C39.5582 32.5874 40.1691 33.4648 40.7081 33.4254C41.0912 33.3966 41.4923 32.8657 41.8374 31.9305C41.8903 31.7872 42.02 31.6864 42.1719 31.6705C42.3239 31.6544 42.4715 31.7265 42.5529 31.8558C42.7184 32.1169 43.3036 32.8533 43.7998 32.8105C44.109 32.7832 44.4273 32.4078 44.6957 31.7533C44.7477 31.6266 44.8607 31.5351 44.9955 31.5109C45.1302 31.4864 45.2682 31.5327 45.3611 31.6333C45.3633 31.6356 45.7332 32.0221 46.1578 32.0063C46.3926 31.998 46.6219 31.8593 46.8392 31.5943C46.9796 31.4229 47.2322 31.3979 47.4036 31.5383C47.5749 31.6786 47.5999 31.9313 47.4595 32.1026C47.0875 32.5565 46.6563 32.7939 46.178 32.8081C45.7927 32.8203 45.4598 32.6817 45.2142 32.5314C44.8481 33.2018 44.3966 33.564 43.8681 33.6096C43.2334 33.6641 42.681 33.2369 42.3182 32.8504C41.8891 33.7289 41.3781 34.1802 40.7664 34.2253C40.112 34.2727 39.556 33.8123 39.1823 33.3762C38.9186 33.824 38.4698 34.1629 37.9337 34.2826C37.6747 34.3404 37.4378 34.3664 37.2216 34.3665ZM36.8099 28.3343C35.6321 28.9792 35.0951 30.3711 35.5162 31.6524C36.4534 31.0743 37.4001 30.2661 37.75 29.1325C38.0304 28.2234 37.1807 28.1312 36.8099 28.3343Z" fill="#9BB6C6"/>
<path d="M47.6201 24.97H32.9557C32.7343 24.97 32.5547 24.7904 32.5547 24.569C32.5547 24.3475 32.7343 24.168 32.9557 24.168H47.6201C47.8416 24.168 48.0211 24.3475 48.0211 24.569C48.0211 24.7904 47.8416 24.97 47.6201 24.97Z" fill="#9BB6C6"/>
<path d="M57.2501 22.412C57.2501 20.889 56.011 19.6543 54.4825 19.6543C52.9539 19.6543 51.7148 20.8889 51.7148 22.412V26.198H57.2502V22.412H57.2501Z" fill="#9BB6C6"/>
<path d="M49.9613 49.6032L47.5807 47.5986L47.075 46.3055L45.2714 41.7323L38.8865 40.6921L37.9534 39.9855C37.9534 39.9855 35.8402 38.4254 33.7897 38.1925C32.9537 38.0975 32.1432 37.8302 31.4241 37.3933C30.6562 36.9267 29.9386 36.2479 29.9912 35.3545L29.0657 35.6245L22.1484 43.1685L22.7331 43.4991C23.765 44.0825 24.6381 44.9098 25.2813 45.9165L25.3063 45.9557C25.9618 46.981 26.8714 47.8192 27.9467 48.3889L28.8585 48.8719L35.6528 54.1838L39.2443 56.9282C39.8461 57.4052 40.7184 57.2604 41.221 56.6397C41.775 55.9556 41.6701 54.9523 40.9871 54.3973C40.3041 53.8423 40.9871 54.3973 40.9871 54.3972L42.1484 55.3377C42.8157 55.8781 43.7947 55.7752 44.3351 55.108C44.8755 54.4407 44.7725 53.4617 44.1052 52.9212L45.3771 53.9513C46.0444 54.4916 47.0234 54.3888 47.5638 53.7216C48.1042 53.0543 48.0012 52.0753 47.3339 51.5348L47.9521 52.0354C48.629 52.5837 49.6223 52.4794 50.1707 51.8026L50.1709 51.8024C50.7118 51.1347 50.6187 50.1567 49.9613 49.6032Z" fill="#FFD4C0"/>
<path d="M48.7705 51.2157L48.1523 50.7151L45.0069 48.168L44.1641 48.9686L47.3328 51.5347L47.951 52.0353C48.6279 52.5836 49.6212 52.4793 50.1696 51.8025L50.1698 51.8023C50.262 51.6884 50.3344 51.565 50.3902 51.4368C49.8685 51.6621 49.2427 51.5982 48.7705 51.2157Z" fill="#FFC7B3"/>
<path d="M41.8067 53.5781H41.8047L41.8067 53.5801V53.5781Z" fill="#FFDECF"/>
<path d="M40.0633 56.1085L37.6488 54.2635L35.6523 54.1836L39.2439 56.928C39.8456 57.405 40.7179 57.2602 41.2206 56.6395C41.3129 56.5255 41.3853 56.4019 41.4414 56.2737C40.9885 56.4671 40.4656 56.4274 40.0633 56.1085Z" fill="#FFC7B3"/>
<path d="M42.9666 54.5186L41.8053 53.5781L39.5215 51.7031L38.707 52.5267L40.9858 54.3976L42.1471 55.3381C42.8145 55.8784 43.7935 55.7756 44.3339 55.1084C44.4267 54.9938 44.4991 54.8696 44.5543 54.7405C44.0419 54.9581 43.4294 54.8933 42.9666 54.5186Z" fill="#FFC7B3"/>
<path d="M46.1981 53.1332L44.9262 52.1032L42.3453 50.0977L41.3828 50.8014L44.1066 52.9227L45.3785 53.9527C46.0459 54.4931 47.0249 54.3903 47.5653 53.723C47.6581 53.6085 47.7305 53.4843 47.7857 53.3551C47.2734 53.5728 46.6609 53.508 46.1981 53.1332Z" fill="#FFC7B3"/>
<path d="M28.899 34.2521L31.2849 35.8612C31.7465 36.1726 31.8673 36.8 31.5545 37.2607L25.4528 46.2461C25.1417 46.7043 24.5189 46.8244 24.0599 46.5149L21.6742 44.9059C21.2127 44.5946 21.0914 43.9678 21.4042 43.507C22.7562 41.5157 26.1586 36.505 27.5063 34.5203C27.8175 34.0621 28.4399 33.9425 28.899 34.2521Z" fill="#3477B3"/>
<path d="M24.6958 43.0239C25.0607 43.2699 25.1571 43.7648 24.911 44.1293C24.6649 44.4938 24.1695 44.5899 23.8046 44.344C23.4397 44.098 23.3433 43.6031 23.5894 43.2386C23.8356 42.8741 24.3309 42.778 24.6958 43.0239Z" fill="white"/>
<path d="M34.496 39.5403L38.7105 36.9662C39.557 36.4491 40.5923 36.3439 41.5255 36.6799L44.4879 37.7464C45.101 37.9672 45.7661 38 46.3979 37.8404L51.1561 36.6393L55.2919 45.2294C55.2919 45.2294 53.6938 48.7182 49.6397 49.3329L40.0755 41.11L37.796 41.7916L36.3142 43.6172C35.2567 44.92 33.4333 45.3083 31.9367 44.5494C31.4912 44.3235 31.3503 43.7546 31.6388 43.3469L34.013 39.9916C34.1416 39.8099 34.306 39.6563 34.496 39.5403Z" fill="#FFB9A0"/>
<path d="M51.7962 34.2979L49.3039 35.7366C48.8217 36.0149 48.6574 36.6325 48.9374 37.1139L54.3979 46.5034C54.6763 46.9822 55.2892 47.1455 55.7687 46.8687L58.2607 45.4302C58.7429 45.1519 58.9075 44.535 58.6275 44.0536C57.4176 41.9729 54.3728 36.7367 53.1666 34.6628C52.8882 34.184 52.2757 34.0211 51.7962 34.2979Z" fill="#3477B3"/>
<path d="M55.3752 43.3412C54.994 43.561 54.8634 44.048 55.0835 44.4288C55.3037 44.8097 55.791 44.9401 56.1722 44.7203C56.5534 44.5005 56.6841 44.0135 56.4639 43.6326C56.2438 43.2517 55.7564 43.1213 55.3752 43.3412Z" fill="white"/>
<path d="M33.8421 49.4212L31.2431 53.1328C30.7694 53.8094 30.9444 54.7431 31.631 55.2022L31.6546 55.2179C32.3222 55.6642 33.2243 55.4935 33.6826 54.8342L36.2688 51.1144C36.7321 50.4481 36.5691 49.5325 35.9043 49.067L35.8936 49.0595C35.2271 48.5929 34.3087 48.7549 33.8421 49.4212Z" fill="#FFB9A0"/>
<path d="M32.8603 55.2022C32.1737 54.7431 31.9987 53.8094 32.4724 53.1328L35.0714 49.4212C35.227 49.1989 35.4335 49.0341 35.6636 48.9287C35.029 48.6362 34.257 48.8286 33.8421 49.4212L31.2431 53.1328C30.7694 53.8094 30.9444 54.7431 31.631 55.2022L31.6546 55.2179C32.0955 55.5126 32.6379 55.5368 33.088 55.3303C33.0182 55.2982 32.9497 55.2619 32.8838 55.2179L32.8603 55.2022Z" fill="#F9AD95"/>
<path d="M33.0128 48.0399C33.6792 48.5065 33.8411 49.425 33.3745 50.0913L31.2265 53.159C30.7599 53.8254 29.8415 53.9873 29.1751 53.5207C28.5087 53.0541 28.3468 52.1356 28.8134 51.4693L30.9614 48.4016C31.428 47.7353 32.3464 47.5733 33.0128 48.0399Z" fill="#FFB9A0"/>
<path d="M30.0427 51.4683L32.1907 48.4007C32.3464 48.1783 32.5528 48.0136 32.7829 47.9082C32.1484 47.6157 31.3764 47.8081 30.9614 48.4007L28.8134 51.4683C28.3468 52.1347 28.5087 53.0532 29.1751 53.5197C29.6192 53.8306 30.1746 53.861 30.6343 53.6504C30.5553 53.614 30.4781 53.5713 30.4044 53.5197C29.7381 53.0532 29.5762 52.1347 30.0427 51.4683Z" fill="#F9AD95"/>
<path d="M35.3469 52.3909L34.1376 54.118C33.671 54.7843 33.8329 55.7027 34.4993 56.1693C35.1657 56.6359 36.0841 56.474 36.5508 55.8076L37.7601 54.0806C38.2267 53.4142 38.0648 52.4958 37.3984 52.0292C36.7319 51.5626 35.8135 51.7245 35.3469 52.3909Z" fill="#FFB9A0"/>
<path d="M35.7286 56.1693C35.0622 55.7027 34.9003 54.7842 35.3669 54.1179L36.5763 52.3909C36.7319 52.1686 36.9384 52.0039 37.1685 51.8985C36.5339 51.6059 35.7619 51.7983 35.347 52.3909L34.1376 54.1179C33.671 54.7843 33.8329 55.7027 34.4993 56.1693C34.9434 56.4802 35.4989 56.5106 35.9586 56.3C35.8796 56.2636 35.8023 56.2209 35.7286 56.1693Z" fill="#F9AD95"/>
<path d="M29.6282 47.788C28.9618 47.3214 28.0434 47.4833 27.5768 48.1497L26.8368 49.2064C26.3702 49.8728 26.5322 50.7912 27.1985 51.2578C27.8649 51.7244 28.7834 51.5625 29.25 50.8961L29.9899 49.8394C30.4565 49.1731 30.2946 48.2546 29.6282 47.788Z" fill="#FFB9A0"/>
<path d="M28.4278 51.2578C27.7615 50.7912 27.5995 49.8727 28.0661 49.2064L28.8061 48.1497C28.9617 47.9274 29.1682 47.7626 29.3983 47.6573C28.7637 47.3647 27.9917 47.5571 27.5768 48.1497L26.8368 49.2064C26.3702 49.8728 26.5322 50.7912 27.1985 51.2578C27.6426 51.5687 28.1981 51.5991 28.6578 51.3885C28.5788 51.352 28.5016 51.3093 28.4278 51.2578Z" fill="#F9AD95"/>
</g>
<defs>
<filter id="filter0_d_6403_48752" x="0.681226" y="0.875321" width="78.6375" height="78.6356" filterUnits="userSpaceOnUse" color-interpolation-filters="sRGB">
<feFlood flood-opacity="0" result="BackgroundImageFix"/>
<feColorMatrix in="SourceAlpha" type="matrix" values="0 0 0 0 0 0 0 0 0 0 0 0 0 0 0 0 0 0 127 0" result="hardAlpha"/>
<feOffset dy="1.7605"/>
<feGaussianBlur stdDeviation="2.05392"/>
<feComposite in2="hardAlpha" operator="out"/>
<feColorMatrix type="matrix" values="0 0 0 0 0.204167 0 0 0 0 0.204167 0 0 0 0 0.204167 0 0 0 0.1 0"/>
<feBlend mode="normal" in2="BackgroundImageFix" result="effect1_dropShadow_6403_48752"/>
<feBlend mode="normal" in="SourceGraphic" in2="effect1_dropShadow_6403_48752" result="shape"/>
</filter>
<clipPath id="clip0_6403_48752">
<rect width="37.5574" height="37.5574" fill="white" transform="translate(21.2188 19.6543)"/>
</clipPath>
</defs>
</svg>
