<svg width="51" height="51" viewBox="0 0 51 51" fill="none" xmlns="http://www.w3.org/2000/svg">
<circle cx="25.876" cy="25.5" r="25" fill="#F0F5FB"/>
<g clip-path="url(#clip0_229_960)">
<path opacity="0.4" d="M25.876 23.625V40.5C26.2462 40.4996 26.6128 40.4264 26.9547 40.2844C31.1934 38.5184 37.5109 33.0773 39.3818 23.6268L25.876 23.625ZM24.7973 10.715L13.5473 15.4025C13.0336 15.6152 12.5946 15.9756 12.2859 16.438C11.9773 16.9004 11.8128 17.444 11.8135 18C11.8143 19.8891 12.0033 21.7734 12.3777 23.625H25.876V10.5C25.5071 10.5122 25.1427 10.5848 24.7973 10.715V10.715Z" fill="#AADDFF"/>
<path d="M24.7922 40.2844C25.1357 40.4272 25.5041 40.5005 25.8762 40.5V23.625H12.3779C14.1053 32.2102 19.5932 38.1176 24.7922 40.2844ZM38.2101 15.4031L26.9602 10.7156C26.6143 10.5848 26.2492 10.5119 25.8797 10.5H25.8762V23.625H39.382C39.7515 21.7728 39.938 19.8887 39.9387 18C39.939 17.4449 39.775 16.9021 39.4674 16.44C39.1598 15.9778 38.7224 15.6171 38.2101 15.4031V15.4031Z" fill="#0096E0"/>
</g>
<defs>
<clipPath id="clip0_229_960">
<rect width="30" height="30" fill="white" transform="translate(10.876 10.5)"/>
</clipPath>
</defs>
</svg>
