<svg width="519" height="470" viewBox="0 0 519 470" fill="none" xmlns="http://www.w3.org/2000/svg">
<path opacity="0.5" d="M122.794 436.453C116.322 421.813 121.759 404.645 135.479 396.4L609.308 111.663C625.684 101.823 646.978 108.567 654.702 126.041C661.174 140.68 655.737 157.849 642.017 166.094L168.188 450.83C151.812 460.67 130.518 453.926 122.794 436.453Z" fill="#D6D6FF"/>
<path d="M233.456 295.489C226.982 280.843 232.426 263.668 246.155 255.426L554.185 70.514C570.561 60.6836 591.847 67.4306 599.57 84.8994C606.044 99.5453 600.6 116.72 586.871 124.962L278.841 309.875C262.465 319.705 241.179 312.958 233.456 295.489Z" fill="#FFF8D6"/>
<path opacity="0.5" d="M36.5146 341.215C29.2234 326.344 34.5317 308.367 48.7314 299.842L525.244 13.7567C541.255 4.14387 562.063 10.2881 570.285 27.0564C577.576 41.9274 572.268 59.9047 558.068 68.4298L81.5557 354.515C65.5443 364.128 44.7362 357.984 36.5146 341.215Z" fill="#AADDFF"/>
</svg>
