<svg width="256" height="174" viewBox="0 0 256 174" fill="none" xmlns="http://www.w3.org/2000/svg">
<path opacity="0.5" d="M44.7964 161.378C42.4257 156.015 44.4175 149.726 49.443 146.706L223.005 42.4086C229.003 38.8042 236.803 41.2746 239.632 47.6749C242.003 53.0374 240.011 59.3261 234.986 62.3461L61.424 166.644C55.4258 170.248 47.6259 167.778 44.7964 161.378Z" fill="#D6D6FF"/>
<path d="M85.3298 109.742C82.9581 104.378 84.9522 98.0865 89.9812 95.0676L202.811 27.335C208.81 23.7342 216.607 26.2056 219.435 32.6043C221.807 37.969 219.813 44.2602 214.784 47.2791L101.954 115.012C95.9555 118.613 88.1585 116.141 85.3298 109.742Z" fill="#FFF8D6"/>
<path opacity="0.5" d="M13.1916 126.491C10.5209 121.044 12.4653 114.459 17.6666 111.336L192.211 6.54432C198.076 3.02319 205.698 5.27379 208.709 11.416C211.38 16.8631 209.436 23.4482 204.234 26.5709L29.69 131.363C23.8251 134.884 16.2031 132.633 13.1916 126.491Z" fill="#AADDFF"/>
</svg>
