<svg width="31" height="31" viewBox="0 0 31 31" fill="none" xmlns="http://www.w3.org/2000/svg">
<path d="M15.7158 19.271C17.7869 19.271 19.4658 17.5921 19.4658 15.521C19.4658 13.4499 17.7869 11.771 15.7158 11.771C13.6448 11.771 11.9658 13.4499 11.9658 15.521C11.9658 17.5921 13.6448 19.271 15.7158 19.271Z" fill="#BDBDBD"/>
<path d="M20.8721 3.80225H10.5596C8.81969 3.80422 7.15164 4.49625 5.92136 5.72653C4.69108 6.95682 3.99904 8.62487 3.99707 10.3647V20.6772C3.99904 22.4171 4.69108 24.0852 5.92136 25.3155C7.15164 26.5457 8.81969 27.2378 10.5596 27.2397H20.8721C22.6119 27.2378 24.28 26.5457 25.5103 25.3155C26.7406 24.0852 27.4326 22.4171 27.4346 20.6772V10.3647C27.4326 8.62487 26.7406 6.95682 25.5103 5.72653C24.28 4.49625 22.6119 3.80422 20.8721 3.80225ZM15.7158 21.146C14.6033 21.146 13.5158 20.8161 12.5907 20.198C11.6657 19.5799 10.9447 18.7014 10.519 17.6736C10.0933 16.6458 9.98186 15.5148 10.1989 14.4236C10.4159 13.3325 10.9517 12.3302 11.7383 11.5435C12.525 10.7569 13.5273 10.2211 14.6184 10.0041C15.7096 9.78704 16.8406 9.89843 17.8684 10.3242C18.8962 10.7499 19.7748 11.4709 20.3928 12.3959C21.0109 13.3209 21.3408 14.4085 21.3408 15.521C21.3391 17.0123 20.746 18.4421 19.6914 19.4966C18.6369 20.5511 17.2071 21.1443 15.7158 21.146ZM21.8096 10.8335C21.5314 10.8335 21.2596 10.751 21.0283 10.5965C20.797 10.442 20.6168 10.2224 20.5104 9.96539C20.4039 9.70844 20.3761 9.42569 20.4303 9.1529C20.4846 8.88011 20.6185 8.62954 20.8152 8.43288C21.0119 8.23621 21.2624 8.10228 21.5352 8.04802C21.808 7.99376 22.0908 8.0216 22.3477 8.12804C22.6047 8.23448 22.8243 8.41472 22.9788 8.64598C23.1333 8.87723 23.2158 9.14912 23.2158 9.42725C23.2158 9.80021 23.0677 10.1579 22.8039 10.4216C22.5402 10.6853 22.1825 10.8335 21.8096 10.8335Z" fill="#BDBDBD"/>
</svg>
