<svg width="31" height="31" viewBox="0 0 31 31" fill="none" xmlns="http://www.w3.org/2000/svg">
<path d="M24.7093 3.53418H5.41853C4.5346 3.53418 3.81641 4.26242 3.81641 5.15639V24.412C3.81641 25.3059 4.5346 26.0342 5.41853 26.0342H24.7093C25.5932 26.0342 26.3164 25.3059 26.3164 24.412V5.15639C26.3164 4.26242 25.5932 3.53418 24.7093 3.53418ZM10.6166 22.8199H7.28181V12.0822H10.6217V22.8199H10.6166ZM8.94922 10.6157C7.87946 10.6157 7.01562 9.74679 7.01562 8.68206C7.01562 7.61733 7.87946 6.74847 8.94922 6.74847C10.014 6.74847 10.8828 7.61733 10.8828 8.68206C10.8828 9.75181 10.019 10.6157 8.94922 10.6157ZM23.1172 22.8199H19.7824V17.5967C19.7824 16.3511 19.7573 14.749 18.0497 14.749C16.3119 14.749 16.0458 16.1051 16.0458 17.5063V22.8199H12.7109V12.0822H15.9102V13.5487H15.9554C16.4023 12.7049 17.4922 11.816 19.1144 11.816C22.4894 11.816 23.1172 14.0409 23.1172 16.9337V22.8199Z" fill="#BDBDBD"/>
</svg>
