<svg width="442" height="440" viewBox="0 0 442 440" fill="none" xmlns="http://www.w3.org/2000/svg">
<path d="M178.195 11.8486L12.5432 181.795C-6.72288 206.089 1.71752 240.282 8.34598 254.341L132.465 381.589C146.14 397.466 178.775 430.889 199.913 437.565C249.283 446.256 261.799 420.529 261.451 420.876C261.104 421.224 167.928 341.259 154.021 328.743C152.63 321.234 159.236 320.747 162.712 321.442C194.698 348.908 261.66 406.135 273.62 415.314C293.646 402.519 306.996 383.791 311.169 376.027C275.289 345.504 202.847 283.727 200.115 280.807C195.311 274.59 201.545 272.413 205.263 272.101C234.429 296.892 298.636 350.849 322.135 368.349C345.635 350.349 356.926 333.766 359.634 327.724C327.968 298.142 262.387 237.102 253.387 229.602C245.387 220.102 253.804 218.977 259.012 219.602L370.259 320.85C382.342 310.85 406.508 288.725 406.508 280.226C385.884 246.476 307.761 174.603 292.761 163.978C277.761 153.354 255.262 155.229 248.387 155.229C242.887 155.229 233.596 163.978 229.637 168.353C220.679 178.561 197.85 199.103 178.195 199.603C153.627 200.228 130.89 181.795 134.015 168.353C154.639 160.229 172.764 128.354 178.195 119.604C183.626 110.855 190.263 98.355 207.138 78.3555C220.638 62.3558 283.178 60.4392 312.761 61.4809C308.686 56.2748 293.733 39.7181 266.521 15.14C239.31 -9.43803 196.299 2.70489 178.195 11.8486Z" fill="white"/>
<path d="M193.913 114.259C187.499 134.299 158.994 162.581 145.544 174.216C154.402 193.405 186.565 187.248 192.142 186.009C197.719 184.77 214.448 170.518 232.727 151C258.132 139.227 277.031 145.733 293.297 152.579C338.847 173.132 392.187 240.555 413.163 271.697C413.163 271.697 415.289 273.126 419.258 271.697C459.265 226.958 435.927 182.793 419.258 166.303L328.853 75.8481C326.07 74.5122 310.817 71.7735 272.072 71.5062C223.641 71.1722 201.931 89.2086 193.913 114.259Z" fill="#F7AD2A"/>
</svg>
