<svg width="136" height="41" viewBox="0 0 136 41" fill="none" xmlns="http://www.w3.org/2000/svg">
<g clip-path="url(#clip0_5768_6325)">
<path d="M130.716 0.433594H5.71582C2.9544 0.433594 0.71582 2.67217 0.71582 5.43359V35.4336C0.71582 38.195 2.9544 40.4336 5.71582 40.4336H130.716C133.477 40.4336 135.716 38.195 135.716 35.4336V5.43359C135.716 2.67217 133.477 0.433594 130.716 0.433594Z" fill="black"/>
<path d="M130.716 1.23339C131.829 1.23468 132.897 1.67762 133.684 2.46504C134.472 3.25246 134.915 4.32005 134.916 5.43359V35.4336C134.915 36.5471 134.472 37.6147 133.684 38.4021C132.897 39.1895 131.829 39.6325 130.716 39.6338H5.71582C4.60227 39.6325 3.5347 39.1896 2.74732 38.4022C1.95994 37.6147 1.51705 36.5471 1.51582 35.4336V5.43359C1.51703 4.32004 1.95991 3.25244 2.7473 2.46501C3.53468 1.67759 4.60226 1.23466 5.71582 1.23339H130.716ZM130.716 0.433594H5.71582C4.39093 0.437472 3.12141 0.965501 2.18457 1.90234C1.24773 2.83919 0.719698 4.1087 0.71582 5.43359L0.71582 35.4336C0.719698 36.7585 1.24773 38.028 2.18457 38.9648C3.12141 39.9017 4.39093 40.4297 5.71582 40.4336H130.716C132.041 40.4297 133.31 39.9017 134.247 38.9648C135.184 38.028 135.712 36.7585 135.716 35.4336V5.43359C135.712 4.1087 135.184 2.83919 134.247 1.90234C133.31 0.965501 132.041 0.437472 130.716 0.433594V0.433594Z" fill="#A6A6A6"/>
<path d="M48.1341 10.6769C48.1523 11.0439 48.0956 11.4107 47.9675 11.755C47.8394 12.0993 47.6425 12.414 47.3889 12.6798C47.1047 12.9746 46.7614 13.206 46.3816 13.359C46.0018 13.512 45.594 13.583 45.1848 13.5675C44.773 13.5712 44.3647 13.4926 43.9837 13.3362C43.6028 13.1798 43.2569 12.9488 42.9665 12.6568C42.6761 12.3649 42.447 12.0178 42.2926 11.636C42.1383 11.2543 42.0618 10.8455 42.0677 10.4337C42.0619 10.022 42.1384 9.61319 42.2927 9.2314C42.4471 8.84962 42.6762 8.50254 42.9666 8.21055C43.257 7.91856 43.6028 7.68754 43.9837 7.53108C44.3647 7.37462 44.773 7.29586 45.1848 7.29943C45.6082 7.29815 46.0273 7.38375 46.4163 7.55093C46.7776 7.69737 47.0991 7.92708 47.3548 8.22133L46.8274 8.74913C46.6264 8.51258 46.3738 8.32537 46.089 8.20194C45.8042 8.07851 45.4948 8.02215 45.1848 8.03723C44.8727 8.03562 44.5635 8.09701 44.2757 8.21772C43.9879 8.33843 43.7275 8.51598 43.5099 8.73974C43.2924 8.9635 43.1222 9.22887 43.0096 9.51994C42.8971 9.81102 42.8444 10.1218 42.8548 10.4337C42.8474 10.9009 42.9788 11.3598 43.2325 11.7522C43.4862 12.1446 43.8507 12.4528 44.2798 12.6377C44.7089 12.8227 45.1833 12.876 45.6427 12.7911C46.1022 12.7061 46.5261 12.4865 46.8606 12.1603C47.1685 11.8286 47.347 11.3972 47.3635 10.9449H45.1848V10.2242H48.0921C48.1196 10.3736 48.1336 10.5251 48.1341 10.6769V10.6769Z" fill="white" stroke="white" stroke-width="0.2" stroke-miterlimit="10"/>
<path d="M52.7436 8.17089H50.0112V10.0732H52.4751V10.794H50.0112V12.6963H52.7436V13.4336H49.2407V7.43359H52.7436V8.17089Z" fill="white" stroke="white" stroke-width="0.2" stroke-miterlimit="10"/>
<path d="M55.9947 13.4336H55.2232V8.17089H53.5474V7.43359H57.6705V8.17089H55.9947V13.4336Z" fill="white" stroke="white" stroke-width="0.2" stroke-miterlimit="10"/>
<path d="M60.6538 13.4336V7.43359H61.4243V13.4336H60.6538Z" fill="white" stroke="white" stroke-width="0.2" stroke-miterlimit="10"/>
<path d="M64.8442 13.4336H64.0727V8.17089H62.397V7.43359H66.52V8.17089H64.8442V13.4336Z" fill="white" stroke="white" stroke-width="0.2" stroke-miterlimit="10"/>
<path d="M74.325 12.6582C73.741 13.2405 72.95 13.5674 72.1253 13.5674C71.3006 13.5674 70.5096 13.2405 69.9256 12.6582C69.6367 12.3656 69.4096 12.0179 69.2577 11.6357C69.1059 11.2535 69.0325 10.8447 69.0418 10.4336C69.0325 10.0225 69.1059 9.61371 69.2577 9.23154C69.4096 8.84938 69.6367 8.50164 69.9256 8.20902C70.2143 7.92028 70.557 7.69131 70.9343 7.53522C71.3115 7.37912 71.7159 7.29896 72.1242 7.29932C72.5324 7.29968 72.9366 7.38056 73.3136 7.53733C73.6906 7.69409 74.033 7.92367 74.3211 8.21292C74.6102 8.50477 74.8378 8.85173 74.9903 9.2332C75.1428 9.61467 75.2171 10.0229 75.2088 10.4336C75.2179 10.8447 75.1443 11.2534 74.9925 11.6355C74.8407 12.0177 74.6137 12.3654 74.325 12.6582V12.6582ZM70.4949 12.1558C70.9274 12.5876 71.5136 12.8301 72.1248 12.8301C72.736 12.8301 73.3222 12.5876 73.7547 12.1558C73.9765 11.9287 74.15 11.659 74.2646 11.363C74.3792 11.067 74.4327 10.7509 74.4217 10.4336C74.4327 10.1164 74.3792 9.8002 74.2646 9.50419C74.15 9.20819 73.9765 8.9385 73.7547 8.71142C73.3222 8.27962 72.736 8.03711 72.1248 8.03711C71.5136 8.03711 70.9274 8.27962 70.4949 8.71142C70.2734 8.93868 70.1002 9.20842 69.9858 9.5044C69.8713 9.80038 69.8179 10.1165 69.8289 10.4336C69.8179 10.7508 69.8713 11.0669 69.9858 11.3628C70.1002 11.6588 70.2734 11.9286 70.4949 12.1558V12.1558Z" fill="white" stroke="white" stroke-width="0.2" stroke-miterlimit="10"/>
<path d="M76.291 13.4336V7.43359H77.2295L80.1455 12.1011H80.1787L80.1455 10.9448V7.43359H80.917V13.4336H80.1123L77.0615 8.53999H77.0283L77.0615 9.69629V13.4336H76.291Z" fill="white" stroke="white" stroke-width="0.2" stroke-miterlimit="10"/>
<path d="M68.8517 22.1851C68.0112 22.1882 67.1905 22.4404 66.4931 22.9097C65.7958 23.379 65.2532 24.0443 64.9338 24.8218C64.6143 25.5992 64.5324 26.4539 64.6983 27.2779C64.8643 28.1018 65.2706 28.8582 65.8661 29.4514C66.4615 30.0446 67.2194 30.448 68.044 30.6108C68.8686 30.7736 69.723 30.6885 70.4992 30.3661C71.2754 30.0437 71.9387 29.4985 72.4053 28.7994C72.872 28.1003 73.121 27.2787 73.121 26.4382C73.1292 25.876 73.0243 25.3179 72.8125 24.7971C72.6007 24.2763 72.2863 23.8034 71.8879 23.4066C71.4896 23.0098 71.0155 22.6971 70.4939 22.4873C69.9723 22.2774 69.4138 22.1747 68.8517 22.1851V22.1851ZM68.8517 29.0159C68.3341 29.0528 67.8173 28.933 67.3687 28.6721C66.9201 28.4112 66.5605 28.0213 66.3366 27.5531C66.1127 27.085 66.0349 26.5603 66.1134 26.0473C66.1919 25.5343 66.4231 25.0569 66.7767 24.6771C67.1304 24.2973 67.5902 24.0328 68.0963 23.918C68.6023 23.8032 69.1313 23.8435 69.6142 24.0335C70.097 24.2235 70.5115 24.5545 70.8037 24.9834C71.0958 25.4123 71.2521 25.9192 71.2521 26.4382C71.2678 26.766 71.2178 27.0937 71.1049 27.4019C70.9921 27.7101 70.8187 27.9926 70.595 28.2328C70.3714 28.473 70.1019 28.666 69.8025 28.8005C69.5031 28.935 69.1798 29.0082 68.8517 29.0159V29.0159ZM59.5383 22.1851C58.6978 22.1882 57.877 22.4404 57.1797 22.9096C56.4824 23.3789 55.9398 24.0443 55.6203 24.8217C55.3008 25.5991 55.2189 26.4538 55.3848 27.2778C55.5507 28.1018 55.9571 28.8581 56.5525 29.4513C57.148 30.0445 57.9059 30.448 58.7305 30.6108C59.5551 30.7736 60.4094 30.6885 61.1857 30.3661C61.9619 30.0437 62.6252 29.4985 63.0918 28.7994C63.5585 28.1004 63.8075 27.2787 63.8075 26.4382C63.8157 25.876 63.7108 25.3179 63.499 24.7971C63.2872 24.2763 62.9728 23.8034 62.5745 23.4066C62.1762 23.0098 61.7021 22.6972 61.1805 22.4873C60.6589 22.2775 60.1004 22.1747 59.5383 22.1851V22.1851ZM59.5383 29.0159C59.0207 29.0528 58.5039 28.933 58.0553 28.6721C57.6067 28.4112 57.2471 28.0213 57.0232 27.5531C56.7993 27.085 56.7215 26.5603 56.8 26.0473C56.8785 25.5343 57.1097 25.0569 57.4633 24.6771C57.817 24.2973 58.2768 24.0328 58.7828 23.918C59.2889 23.8032 59.8179 23.8435 60.3007 24.0335C60.7836 24.2235 61.1981 24.5545 61.4903 24.9834C61.7824 25.4123 61.9387 25.9192 61.9387 26.4382C61.9544 26.766 61.9044 27.0937 61.7915 27.4019C61.6787 27.7101 61.5053 27.9926 61.2817 28.2328C61.058 28.473 60.7885 28.666 60.4891 28.8005C60.1897 28.935 59.8664 29.0082 59.5383 29.0159ZM48.4595 23.4901V25.2944H52.7772C52.7149 26.1407 52.3686 26.9411 51.7944 27.566C51.3617 28.007 50.8414 28.3524 50.267 28.5799C49.6925 28.8075 49.0768 28.9121 48.4595 28.887C47.1975 28.8699 45.9929 28.3565 45.1065 27.4581C44.2201 26.5596 43.7231 25.3482 43.7231 24.0861C43.7231 22.8239 44.2201 21.6125 45.1065 20.7141C45.9929 19.8156 47.1975 19.3022 48.4595 19.2852C49.6717 19.2693 50.8412 19.7325 51.7139 20.574L52.9866 19.3013C52.3911 18.7118 51.684 18.2471 50.9066 17.9345C50.1292 17.6219 49.2973 17.4676 48.4595 17.4808C47.584 17.468 46.7147 17.6294 45.9021 17.9557C45.0895 18.2819 44.3499 18.7664 43.7263 19.381C43.1027 19.9957 42.6074 20.7281 42.2694 21.5359C41.9314 22.3436 41.7573 23.2105 41.7573 24.0861C41.7573 24.9617 41.9314 25.8285 42.2694 26.6363C42.6074 27.444 43.1027 28.1765 43.7263 28.7911C44.3499 29.4057 45.0895 29.8902 45.9021 30.2164C46.7147 30.5427 47.584 30.7041 48.4595 30.6914C49.3149 30.7268 50.1682 30.58 50.9626 30.2606C51.7569 29.9412 52.4743 29.4565 53.0671 28.8387C54.1195 27.6899 54.6804 26.1749 54.6299 24.6178C54.634 24.2396 54.6016 23.862 54.5331 23.4901H48.4595ZM93.7678 24.8916C93.5122 24.1212 93.0256 23.4482 92.3742 22.964C91.7228 22.4797 90.9381 22.2078 90.1268 22.1851C89.5803 22.1884 89.0402 22.3026 88.5391 22.5207C88.038 22.7387 87.5864 23.0561 87.2114 23.4536C86.8365 23.8512 86.546 24.3206 86.3576 24.8336C86.1692 25.3466 86.0868 25.8924 86.1154 26.4382C86.1031 26.9973 86.2036 27.5533 86.4109 28.0727C86.6183 28.5922 86.9282 29.0645 87.3222 29.4615C87.7162 29.8585 88.1862 30.172 88.704 30.3833C89.2219 30.5947 89.777 30.6994 90.3363 30.6914C91.0369 30.6952 91.7276 30.525 92.3462 30.196C92.9648 29.867 93.492 29.3896 93.8805 28.8065L92.4306 27.8399C92.2134 28.2006 91.9061 28.4987 91.539 28.7048C91.1718 28.911 90.7574 29.0182 90.3363 29.0159C89.903 29.0324 89.4747 28.9184 89.107 28.6886C88.7393 28.4588 88.4491 28.1238 88.2741 27.7271L93.9612 25.375L93.7678 24.8916ZM87.9681 26.3094C87.9481 25.9998 87.99 25.6894 88.0914 25.3962C88.1928 25.103 88.3516 24.833 88.5586 24.602C88.7656 24.371 89.0167 24.1836 89.297 24.0507C89.5773 23.9179 89.8813 23.8423 90.1912 23.8284C90.5139 23.8071 90.8357 23.8814 91.1164 24.0418C91.3972 24.2022 91.6245 24.4418 91.7701 24.7306L87.9681 26.3094ZM83.3443 30.4336H85.2131V17.932H83.3443V30.4336ZM80.2833 23.1356H80.2189C79.9348 22.8269 79.588 22.5824 79.2018 22.4185C78.8156 22.2546 78.3989 22.175 77.9795 22.1851C76.8828 22.2317 75.8465 22.7002 75.087 23.4927C74.3275 24.2853 73.9035 25.3405 73.9035 26.4382C73.9035 27.5359 74.3275 28.5912 75.087 29.3837C75.8465 30.1762 76.8828 30.6447 77.9795 30.6914C78.4006 30.7026 78.819 30.6219 79.2058 30.455C79.5925 30.288 79.9382 30.0389 80.2189 29.7248H80.2833V30.337C80.2833 31.9642 79.4134 32.8341 78.0117 32.8341C77.5446 32.8229 77.0913 32.6729 76.7097 32.4032C76.3282 32.1335 76.0355 31.7563 75.8691 31.3197L74.2419 31.9964C74.5486 32.743 75.0712 33.3811 75.7428 33.8289C76.4145 34.2766 77.2045 34.5136 78.0117 34.5096C80.2028 34.5096 82.0555 33.2208 82.0555 30.0792V22.4428H80.2833V23.1356ZM78.1407 29.0159C77.4948 28.9611 76.8929 28.6658 76.4543 28.1884C76.0157 27.7111 75.7724 27.0865 75.7724 26.4382C75.7724 25.79 76.0157 25.1653 76.4543 24.688C76.8929 24.2106 77.4948 23.9153 78.1407 23.8606C78.462 23.8762 78.777 23.9565 79.0666 24.0965C79.3563 24.2365 79.6149 24.4333 79.8268 24.6754C80.0388 24.9174 80.1999 25.1997 80.3004 25.5053C80.401 25.8109 80.439 26.1336 80.4122 26.4543C80.4373 26.7729 80.3979 27.0933 80.2964 27.3964C80.1948 27.6994 80.0331 27.9789 79.8211 28.218C79.609 28.4572 79.3509 28.6511 79.0622 28.7882C78.7735 28.9252 78.46 29.0027 78.1407 29.0159V29.0159ZM102.522 17.9322H98.0505V30.4336H99.9162V25.6972H102.522C103.049 25.7261 103.578 25.6471 104.074 25.4651C104.57 25.283 105.024 25.0017 105.408 24.6384C105.792 24.275 106.097 23.8372 106.306 23.3517C106.515 22.8662 106.623 22.3432 106.623 21.8147C106.623 21.2861 106.515 20.7631 106.306 20.2776C106.097 19.7921 105.792 19.3543 105.408 18.9909C105.024 18.6276 104.57 18.3463 104.074 18.1642C103.578 17.9822 103.049 17.9032 102.522 17.9322V17.9322ZM102.57 23.9574H99.9162V19.6721H102.57C102.855 19.6661 103.138 19.7172 103.404 19.8222C103.669 19.9272 103.91 20.0841 104.114 20.2837C104.318 20.4832 104.479 20.7214 104.59 20.9843C104.7 21.2472 104.757 21.5295 104.757 21.8147C104.757 22.0999 104.7 22.3822 104.59 22.6451C104.479 22.908 104.318 23.1462 104.114 23.3457C103.91 23.5453 103.669 23.7022 103.404 23.8072C103.138 23.9122 102.855 23.9633 102.57 23.9574V23.9574ZM114.102 22.1621C113.421 22.1223 112.743 22.2822 112.151 22.6222C111.56 22.9622 111.081 23.4674 110.772 24.076L112.429 24.7676C112.593 24.4655 112.842 24.2179 113.145 24.0551C113.447 23.8923 113.791 23.8213 114.134 23.8508C114.607 23.8045 115.079 23.9479 115.447 24.2494C115.815 24.5508 116.048 24.9859 116.096 25.4591V25.5878C115.497 25.2694 114.828 25.1037 114.15 25.1053C112.365 25.1053 110.547 26.0864 110.547 27.9199C110.565 28.3063 110.659 28.6852 110.826 29.0343C110.993 29.3834 111.228 29.6955 111.517 29.952C111.807 30.2085 112.145 30.4042 112.511 30.5276C112.878 30.6509 113.266 30.6994 113.651 30.6701C114.121 30.6977 114.59 30.5989 115.008 30.3839C115.427 30.169 115.78 29.8457 116.032 29.4478H116.096V30.4128H117.897V25.62C117.897 23.4005 116.241 22.1621 114.102 22.1621V22.1621ZM113.876 29.0135C113.265 29.0135 112.413 28.708 112.413 27.952C112.413 26.9871 113.474 26.6171 114.391 26.6171C114.987 26.6012 115.575 26.7456 116.096 27.0353C116.027 27.5775 115.765 28.0766 115.357 28.4402C114.949 28.8039 114.423 29.0075 113.876 29.0135V29.0135ZM124.459 22.4355L122.32 27.8555H122.256L120.036 22.4355H118.026L121.355 30.0107L119.457 34.2245H121.403L126.534 22.4355H124.459ZM107.652 30.4336H109.518V17.9322H107.652V30.4336Z" fill="white"/>
<path d="M11.151 7.97153C10.8231 8.3636 10.6575 8.86622 10.6882 9.37643V31.4925C10.6574 32.0027 10.823 32.5054 11.151 32.8974L11.225 32.9695L23.614 20.5806V20.2883L11.225 7.89893L11.151 7.97153Z" fill="url(#paint0_linear_5768_6325)"/>
<path d="M27.7437 24.7123L23.6143 20.5809V20.2886L27.7447 16.1582L27.8378 16.2113L32.7306 18.9914C34.1282 19.7854 34.1282 21.0846 32.7306 21.8791L27.8378 24.6592L27.7437 24.7123Z" fill="url(#paint1_linear_5768_6325)"/>
<path d="M27.8374 24.6585L23.6139 20.4346L11.1509 32.8975C11.4356 33.1486 11.7993 33.2923 12.1788 33.3035C12.5584 33.3147 12.9299 33.1928 13.229 32.9589L27.8374 24.6585Z" fill="url(#paint2_linear_5768_6325)"/>
<path d="M27.8374 16.2107L13.229 7.91025C12.9299 7.67634 12.5584 7.55444 12.1788 7.56565C11.7993 7.57687 11.4356 7.72049 11.1509 7.97165L23.6139 20.4347L27.8374 16.2107Z" fill="url(#paint3_linear_5768_6325)"/>
<path opacity="0.2" d="M27.7443 24.5654L13.229 32.8127C12.9414 33.0317 12.5904 33.1511 12.229 33.153C11.8675 33.155 11.5153 33.0393 11.2254 32.8234L11.1509 32.8979L11.2249 32.97L11.2254 32.9695C11.5152 33.1855 11.8675 33.3013 12.229 33.2993C12.5904 33.2974 12.9414 33.1779 13.229 32.9588L27.8374 24.6584L27.7443 24.5654Z" fill="black"/>
<path opacity="0.12" d="M11.151 32.7521C10.8231 32.36 10.6575 31.8574 10.6882 31.3472V31.4933C10.6575 32.0035 10.8231 32.5061 11.151 32.8982L11.2255 32.8237L11.151 32.7521Z" fill="black"/>
<path opacity="0.12" d="M32.7305 21.7324L27.7446 24.5656L27.8377 24.6586L32.7305 21.8785C33.0183 21.7536 33.2674 21.5538 33.4518 21.2999C33.6361 21.046 33.7491 20.7474 33.7788 20.4351C33.717 20.7179 33.59 20.9824 33.408 21.2076C33.2261 21.4328 32.9941 21.6125 32.7305 21.7324V21.7324Z" fill="black"/>
<path opacity="0.25" d="M13.2294 8.05694L32.7306 19.1369C32.9942 19.2568 33.2263 19.4365 33.4083 19.6618C33.5903 19.8871 33.7172 20.1518 33.7789 20.4347C33.7493 20.1223 33.6365 19.8235 33.4521 19.5695C33.2677 19.3155 33.0185 19.1157 32.7306 18.9908L13.2294 7.91084C11.8318 7.11674 10.6885 7.77634 10.6885 9.37714V9.52324C10.6885 7.92254 11.8318 7.26294 13.2294 8.05694Z" fill="white"/>
</g>
<defs>
<linearGradient id="paint0_linear_5768_6325" x1="22.5153" y1="9.14324" x2="5.73294" y2="25.9256" gradientUnits="userSpaceOnUse">
<stop stop-color="#00A0FF"/>
<stop offset="0.00657" stop-color="#00A1FF"/>
<stop offset="0.2601" stop-color="#00BEFF"/>
<stop offset="0.5122" stop-color="#00D2FF"/>
<stop offset="0.7604" stop-color="#00DFFF"/>
<stop offset="1" stop-color="#00E3FF"/>
</linearGradient>
<linearGradient id="paint1_linear_5768_6325" x1="34.5502" y1="20.4353" x2="10.3533" y2="20.4353" gradientUnits="userSpaceOnUse">
<stop stop-color="#FFE000"/>
<stop offset="0.4087" stop-color="#FFBD00"/>
<stop offset="0.7754" stop-color="#FFA500"/>
<stop offset="1" stop-color="#FF9C00"/>
</linearGradient>
<linearGradient id="paint2_linear_5768_6325" x1="25.5424" y1="22.7297" x2="2.78415" y2="45.488" gradientUnits="userSpaceOnUse">
<stop stop-color="#FF3A44"/>
<stop offset="1" stop-color="#C31162"/>
</linearGradient>
<linearGradient id="paint3_linear_5768_6325" x1="8.01281" y1="0.609831" x2="18.1753" y2="10.7724" gradientUnits="userSpaceOnUse">
<stop stop-color="#32A071"/>
<stop offset="0.0685" stop-color="#2DA771"/>
<stop offset="0.4762" stop-color="#15CF74"/>
<stop offset="0.8009" stop-color="#06E775"/>
<stop offset="1" stop-color="#00F076"/>
</linearGradient>
<clipPath id="clip0_5768_6325">
<rect width="135" height="40.0002" fill="white" transform="translate(0.71582 0.433594)"/>
</clipPath>
</defs>
</svg>
