<svg width="31" height="31" viewBox="0 0 31 31" fill="none" xmlns="http://www.w3.org/2000/svg">
<path d="M29.504 9.6211L25.9691 13.156C25.2634 21.3452 18.3572 27.7082 10.091 27.7082C8.38896 27.7082 6.98625 27.4383 5.92178 26.9061C5.06273 26.4766 4.71082 26.0156 4.62351 25.8845C4.54517 25.767 4.49439 25.6333 4.47496 25.4934C4.45553 25.3535 4.46796 25.2111 4.51131 25.0767C4.55466 24.9423 4.62781 24.8194 4.7253 24.7172C4.8228 24.615 4.94212 24.5362 5.07435 24.4866C5.1045 24.4752 7.86905 23.4135 9.65582 21.3919C8.54444 20.6005 7.56629 19.637 6.75817 18.5378C5.15177 16.3577 3.45278 12.5716 4.48114 6.91548C4.51175 6.74715 4.58784 6.59041 4.70116 6.46223C4.81448 6.33406 4.96072 6.23933 5.12402 6.18832C5.28733 6.13731 5.46148 6.13196 5.62761 6.17285C5.79374 6.21374 5.94552 6.29932 6.06649 6.4203C6.10781 6.46149 10.0089 10.3075 14.7779 11.5498L14.7785 10.8327C14.7886 9.33172 15.3943 7.89613 16.4625 6.84152C17.5306 5.7869 18.9738 5.19956 20.4748 5.2086C21.4499 5.2221 22.4049 5.48829 23.2464 5.98117C24.0879 6.47404 24.7871 7.17674 25.2759 8.02064L28.841 8.0207C29.0265 8.0207 29.2077 8.07568 29.3619 8.17869C29.5161 8.2817 29.6362 8.42811 29.7072 8.59942C29.7781 8.77072 29.7967 8.95922 29.7605 9.14107C29.7244 9.32293 29.6351 9.48998 29.504 9.6211Z" fill="#BDBDBD"/>
</svg>
